<mxfile host="app.diagrams.net" modified="2020-08-19T10:17:44.062Z" agent="5.0 (Windows)" etag="4-oe4scU3HZWW0dGc1jX" version="13.6.3" type="github">
  <diagram id="LkfhWpor7lDu-k25dBGM" name="Версия 2">
    <mxGraphModel dx="1175" dy="1240" grid="1" gridSize="10" guides="1" tooltips="1" connect="1" arrows="1" fold="1" page="1" pageScale="1" pageWidth="1169" pageHeight="1654" math="0" shadow="0">
      <root>
        <mxCell id="1T-89taB87COxcUD3kPp-0" />
        <mxCell id="1T-89taB87COxcUD3kPp-1" parent="1T-89taB87COxcUD3kPp-0" />
        <mxCell id="nQWJmpluUFZDyjNe52Zx-113" value="" style="endArrow=classic;html=1;strokeWidth=3;entryX=0.75;entryY=1;entryDx=0;entryDy=0;fillColor=#f8cecc;strokeColor=#b85450;" parent="1T-89taB87COxcUD3kPp-1" target="tsX-wB04UhycCPOWPUZV-16" edge="1">
          <mxGeometry width="50" height="50" relative="1" as="geometry">
            <mxPoint x="460.08" y="320" as="sourcePoint" />
            <mxPoint x="459.5800000000002" y="280" as="targetPoint" />
          </mxGeometry>
        </mxCell>
        <mxCell id="nQWJmpluUFZDyjNe52Zx-108" value="" style="curved=1;endArrow=classic;html=1;strokeWidth=3;fillColor=#dae8fc;strokeColor=#6c8ebf;exitX=0.75;exitY=0;exitDx=0;exitDy=0;entryX=0.5;entryY=1;entryDx=0;entryDy=0;" parent="1T-89taB87COxcUD3kPp-1" source="nQWJmpluUFZDyjNe52Zx-0" target="tsX-wB04UhycCPOWPUZV-2" edge="1">
          <mxGeometry width="50" height="50" relative="1" as="geometry">
            <mxPoint x="790" y="890" as="sourcePoint" />
            <mxPoint x="770" y="210" as="targetPoint" />
            <Array as="points">
              <mxPoint x="760" y="610" />
            </Array>
          </mxGeometry>
        </mxCell>
        <mxCell id="tsX-wB04UhycCPOWPUZV-1" value="" style="curved=1;endArrow=classic;html=1;strokeWidth=3;fillColor=#f8cecc;strokeColor=#b85450;exitX=0.25;exitY=0;exitDx=0;exitDy=0;" parent="1T-89taB87COxcUD3kPp-1" source="gXGEx_JHsCBYrGABIQa0-3" edge="1">
          <mxGeometry width="50" height="50" relative="1" as="geometry">
            <mxPoint x="500" y="960" as="sourcePoint" />
            <mxPoint x="640" y="520" as="targetPoint" />
            <Array as="points">
              <mxPoint x="730" y="810" />
            </Array>
          </mxGeometry>
        </mxCell>
        <mxCell id="gXGEx_JHsCBYrGABIQa0-18" value="" style="shape=flexArrow;endArrow=classic;html=1;strokeWidth=2;fillColor=#f8cecc;strokeColor=#b85450;" parent="1T-89taB87COxcUD3kPp-1" edge="1">
          <mxGeometry width="50" height="50" relative="1" as="geometry">
            <mxPoint x="580" y="1520" as="sourcePoint" />
            <mxPoint x="579.5" y="1320" as="targetPoint" />
          </mxGeometry>
        </mxCell>
        <mxCell id="tsX-wB04UhycCPOWPUZV-8" value="" style="curved=1;endArrow=classic;html=1;strokeWidth=3;fillColor=#dae8fc;strokeColor=#6c8ebf;exitX=0.75;exitY=0;exitDx=0;exitDy=0;entryX=0.5;entryY=1;entryDx=0;entryDy=0;" parent="1T-89taB87COxcUD3kPp-1" source="gXGEx_JHsCBYrGABIQa0-3" target="tsX-wB04UhycCPOWPUZV-4" edge="1">
          <mxGeometry width="50" height="50" relative="1" as="geometry">
            <mxPoint x="863.2399999999998" y="870" as="sourcePoint" />
            <mxPoint x="850.0047058823529" y="470" as="targetPoint" />
            <Array as="points">
              <mxPoint x="870" y="350" />
            </Array>
          </mxGeometry>
        </mxCell>
        <mxCell id="tsX-wB04UhycCPOWPUZV-14" value="" style="rounded=0;whiteSpace=wrap;html=1;fillColor=#f5f5f5;strokeColor=#666666;fontColor=#333333;" parent="1T-89taB87COxcUD3kPp-1" vertex="1">
          <mxGeometry x="280" y="360" width="560" height="80" as="geometry" />
        </mxCell>
        <mxCell id="tsX-wB04UhycCPOWPUZV-13" value="" style="rounded=0;whiteSpace=wrap;html=1;fillColor=#f5f5f5;strokeColor=#666666;fontColor=#333333;" parent="1T-89taB87COxcUD3kPp-1" vertex="1">
          <mxGeometry x="280" y="640" width="560" height="80" as="geometry" />
        </mxCell>
        <mxCell id="tsX-wB04UhycCPOWPUZV-12" value="" style="rounded=0;whiteSpace=wrap;html=1;fillColor=#f5f5f5;strokeColor=#666666;fontColor=#333333;" parent="1T-89taB87COxcUD3kPp-1" vertex="1">
          <mxGeometry x="280" y="920" width="560" height="80" as="geometry" />
        </mxCell>
        <mxCell id="tsX-wB04UhycCPOWPUZV-11" value="" style="rounded=0;whiteSpace=wrap;html=1;fillColor=#f5f5f5;strokeColor=#666666;fontColor=#333333;" parent="1T-89taB87COxcUD3kPp-1" vertex="1">
          <mxGeometry x="280" y="1200" width="560" height="80" as="geometry" />
        </mxCell>
        <mxCell id="gXGEx_JHsCBYrGABIQa0-0" value="" style="rounded=1;whiteSpace=wrap;html=1;" parent="1T-89taB87COxcUD3kPp-1" vertex="1">
          <mxGeometry x="320" y="1160" width="80" height="160" as="geometry" />
        </mxCell>
        <mxCell id="gXGEx_JHsCBYrGABIQa0-1" value="&lt;div style=&quot;font-size: 18px&quot;&gt;&lt;font style=&quot;font-size: 18px&quot;&gt;&lt;b&gt;&lt;font style=&quot;font-size: 18px&quot;&gt;&lt;br&gt;&lt;/font&gt;&lt;/b&gt;&lt;/font&gt;&lt;/div&gt;&lt;div style=&quot;font-size: 18px&quot;&gt;&lt;font style=&quot;font-size: 18px&quot;&gt;&lt;font style=&quot;font-size: 18px&quot;&gt;УЗО&lt;/font&gt;&lt;/font&gt;&lt;/div&gt;&lt;div style=&quot;font-size: 18px&quot;&gt;&lt;font style=&quot;font-size: 18px&quot;&gt;&lt;font style=&quot;font-size: 18px&quot;&gt;300мА&lt;/font&gt;&lt;/font&gt;&lt;/div&gt;&lt;div style=&quot;font-size: 18px&quot;&gt;&lt;font style=&quot;font-size: 18px&quot;&gt;&lt;font style=&quot;font-size: 18px&quot;&gt;63А&lt;/font&gt;&lt;/font&gt;&lt;/div&gt;&lt;div style=&quot;font-size: 18px&quot;&gt;&lt;font style=&quot;font-size: 18px&quot;&gt;&lt;font style=&quot;font-size: 18px&quot;&gt;А&lt;/font&gt;&lt;/font&gt;&lt;br&gt;&lt;/div&gt;&lt;div&gt;&lt;span style=&quot;font-size: 13px ; color: #000000 ; font-weight: normal ; text-decoration: none ; font-family: &amp;#34;arial&amp;#34; ; font-style: normal&quot;&gt;CF263J&lt;/span&gt;&lt;/div&gt;" style="rounded=1;whiteSpace=wrap;html=1;" parent="1T-89taB87COxcUD3kPp-1" vertex="1">
          <mxGeometry x="400" y="1160" width="80" height="160" as="geometry" />
        </mxCell>
        <mxCell id="gXGEx_JHsCBYrGABIQa0-2" value="&lt;div style=&quot;font-size: 18px&quot;&gt;&lt;span style=&quot;color: rgb(0 , 0 , 0) ; font-weight: normal ; text-decoration: none ; font-family: &amp;#34;arial&amp;#34; ; font-style: normal&quot;&gt;&lt;font style=&quot;font-size: 18px&quot;&gt;B32&lt;/font&gt;&lt;br&gt;&lt;/span&gt;&lt;/div&gt;&lt;div&gt;&lt;span style=&quot;font-size: 13px ; color: #000000 ; font-weight: normal ; text-decoration: none ; font-family: &amp;#34;arial&amp;#34; ; font-style: normal&quot;&gt; MB232A&lt;/span&gt;&lt;/div&gt;" style="rounded=1;whiteSpace=wrap;html=1;" parent="1T-89taB87COxcUD3kPp-1" vertex="1">
          <mxGeometry x="640" y="1160" width="80" height="160" as="geometry" />
        </mxCell>
        <mxCell id="gXGEx_JHsCBYrGABIQa0-3" value="&lt;div style=&quot;font-size: 18px&quot;&gt;&lt;font style=&quot;font-size: 18px&quot;&gt;&lt;span style=&quot;color: rgb(0 , 0 , 0) ; font-weight: normal ; text-decoration: none ; font-family: &amp;#34;arial&amp;#34; ; font-style: normal&quot;&gt;УЗО&lt;/span&gt;&lt;/font&gt;&lt;/div&gt;&lt;div style=&quot;font-size: 18px&quot;&gt;&lt;font style=&quot;font-size: 18px&quot;&gt;&lt;span style=&quot;color: rgb(0 , 0 , 0) ; font-weight: normal ; text-decoration: none ; font-family: &amp;#34;arial&amp;#34; ; font-style: normal&quot;&gt;30мА&lt;/span&gt;&lt;/font&gt;&lt;/div&gt;&lt;div style=&quot;font-size: 18px&quot;&gt;&lt;font style=&quot;font-size: 18px&quot;&gt;&lt;span style=&quot;color: rgb(0 , 0 , 0) ; font-weight: normal ; text-decoration: none ; font-family: &amp;#34;arial&amp;#34; ; font-style: normal&quot;&gt;40А&lt;/span&gt;&lt;/font&gt;&lt;/div&gt;&lt;div style=&quot;font-size: 18px&quot;&gt;&lt;span style=&quot;color: rgb(0 , 0 , 0) ; font-weight: normal ; text-decoration: none ; font-family: &amp;#34;arial&amp;#34; ; font-style: normal&quot;&gt;&lt;font style=&quot;font-size: 18px&quot;&gt;А&lt;/font&gt;&lt;br&gt;&lt;/span&gt;&lt;/div&gt;&lt;div&gt;&lt;span style=&quot;font-size: 13px ; color: #000000 ; font-weight: normal ; text-decoration: none ; font-family: &amp;#34;arial&amp;#34; ; font-style: normal&quot;&gt;CD240J&lt;/span&gt;&lt;/div&gt;" style="rounded=1;whiteSpace=wrap;html=1;" parent="1T-89taB87COxcUD3kPp-1" vertex="1">
          <mxGeometry x="720" y="880" width="80" height="160" as="geometry" />
        </mxCell>
        <mxCell id="gXGEx_JHsCBYrGABIQa0-7" value="&lt;div&gt;&lt;font style=&quot;font-size: 18px&quot;&gt;B40&lt;/font&gt;&lt;br&gt;&lt;font style=&quot;font-size: 18px&quot;&gt;&lt;span style=&quot;font-size: 13px ; color: #000000 ; font-weight: normal ; text-decoration: none ; font-family: &amp;#34;arial&amp;#34; ; font-style: normal&quot;&gt;MB240A&lt;/span&gt;&lt;/font&gt;&lt;/div&gt;" style="rounded=1;whiteSpace=wrap;html=1;" parent="1T-89taB87COxcUD3kPp-1" vertex="1">
          <mxGeometry x="320" y="1160" width="80" height="160" as="geometry" />
        </mxCell>
        <mxCell id="gXGEx_JHsCBYrGABIQa0-9" value="&lt;div&gt;&lt;br&gt;&lt;/div&gt;&lt;div style=&quot;font-size: 18px&quot;&gt;&lt;font style=&quot;font-size: 18px&quot;&gt;УЗО&lt;/font&gt;&lt;br&gt;&lt;/div&gt;&lt;div style=&quot;font-size: 18px&quot;&gt;&lt;span style=&quot;color: rgb(0 , 0 , 0) ; font-weight: normal ; text-decoration: none ; font-family: &amp;#34;arial&amp;#34; ; font-style: normal&quot;&gt;&lt;font style=&quot;font-size: 18px&quot;&gt;10mA&lt;/font&gt;&lt;/span&gt;&lt;br&gt;&lt;span style=&quot;color: rgb(0 , 0 , 0) ; font-weight: normal ; text-decoration: none ; font-family: &amp;#34;arial&amp;#34; ; font-style: normal&quot;&gt;&lt;font style=&quot;font-size: 18px&quot;&gt;&lt;span style=&quot;color: rgb(0 , 0 , 0) ; font-weight: normal ; text-decoration: none ; font-family: &amp;#34;arial&amp;#34; ; font-style: normal&quot;&gt;B16&lt;/span&gt;&lt;/font&gt;&lt;/span&gt;&lt;/div&gt;&lt;div style=&quot;font-size: 18px&quot;&gt;&lt;span style=&quot;color: rgb(0 , 0 , 0) ; font-weight: normal ; text-decoration: none ; font-family: &amp;#34;arial&amp;#34; ; font-style: normal&quot;&gt;&lt;font style=&quot;font-size: 18px&quot;&gt;&lt;span style=&quot;color: rgb(0 , 0 , 0) ; font-weight: normal ; text-decoration: none ; font-family: &amp;#34;arial&amp;#34; ; font-style: normal&quot;&gt;А&lt;br&gt;&lt;/span&gt;&lt;/font&gt;&lt;/span&gt;&lt;/div&gt;&lt;div&gt;&lt;span style=&quot;font-size: 13px ; color: #000000 ; font-weight: normal ; text-decoration: none ; font-family: &amp;#34;arial&amp;#34; ; font-style: normal&quot;&gt;CC216J&lt;/span&gt;&lt;br&gt;&lt;span style=&quot;font-size: 13px ; color: #000000 ; font-weight: normal ; text-decoration: none ; font-family: &amp;#34;arial&amp;#34; ; font-style: normal&quot;&gt;&lt;/span&gt;&lt;/div&gt;" style="rounded=1;whiteSpace=wrap;html=1;" parent="1T-89taB87COxcUD3kPp-1" vertex="1">
          <mxGeometry x="320" y="880" width="80" height="160" as="geometry" />
        </mxCell>
        <mxCell id="gXGEx_JHsCBYrGABIQa0-10" value="&lt;div style=&quot;font-size: 18px&quot;&gt;&lt;span style=&quot;color: rgb(0 , 0 , 0) ; font-weight: normal ; text-decoration: none ; font-family: &amp;#34;arial&amp;#34; ; font-style: normal&quot;&gt;I-0-II&lt;br&gt;&lt;/span&gt;&lt;/div&gt;&lt;div style=&quot;font-size: 18px&quot;&gt;&lt;span style=&quot;color: rgb(0 , 0 , 0) ; font-weight: normal ; text-decoration: none ; font-family: &amp;#34;arial&amp;#34; ; font-style: normal&quot;&gt;40A&lt;br&gt;&lt;/span&gt;&lt;/div&gt;&lt;div&gt;&lt;span style=&quot;font-size: 13px ; color: #000000 ; font-weight: normal ; text-decoration: none ; font-family: &amp;#34;arial&amp;#34; ; font-style: normal&quot;&gt;SFT 240&lt;/span&gt;&lt;/div&gt;" style="rounded=1;whiteSpace=wrap;html=1;" parent="1T-89taB87COxcUD3kPp-1" vertex="1">
          <mxGeometry x="520" y="1160" width="80" height="160" as="geometry" />
        </mxCell>
        <mxCell id="gXGEx_JHsCBYrGABIQa0-11" value="&lt;div style=&quot;font-size: 18px&quot;&gt;&lt;span style=&quot;color: rgb(0 , 0 , 0) ; font-weight: normal ; text-decoration: none ; font-family: &amp;#34;arial&amp;#34; ; font-style: normal&quot;&gt;&lt;font style=&quot;font-size: 18px&quot;&gt;B25&lt;/font&gt;&lt;br&gt;&lt;/span&gt;&lt;/div&gt;&lt;div&gt;&lt;span style=&quot;font-size: 13px ; color: #000000 ; font-weight: normal ; text-decoration: none ; font-family: &amp;#34;arial&amp;#34; ; font-style: normal&quot;&gt;MB225A&lt;/span&gt;&lt;/div&gt;" style="rounded=1;whiteSpace=wrap;html=1;" parent="1T-89taB87COxcUD3kPp-1" vertex="1">
          <mxGeometry x="720" y="1160" width="80" height="160" as="geometry" />
        </mxCell>
        <mxCell id="gXGEx_JHsCBYrGABIQa0-12" value="" style="rounded=1;whiteSpace=wrap;html=1;fillColor=#d5e8d4;strokeColor=#82b366;" parent="1T-89taB87COxcUD3kPp-1" vertex="1">
          <mxGeometry x="480" y="1160" width="40" height="160" as="geometry" />
        </mxCell>
        <mxCell id="gXGEx_JHsCBYrGABIQa0-13" value="" style="rounded=1;whiteSpace=wrap;html=1;fillColor=#f8cecc;strokeColor=#b85450;" parent="1T-89taB87COxcUD3kPp-1" vertex="1">
          <mxGeometry x="600" y="1160" width="40" height="160" as="geometry" />
        </mxCell>
        <mxCell id="gXGEx_JHsCBYrGABIQa0-14" value="" style="shape=flexArrow;endArrow=classic;html=1;strokeWidth=2;fillColor=#d5e8d4;strokeColor=#82b366;" parent="1T-89taB87COxcUD3kPp-1" edge="1">
          <mxGeometry width="50" height="50" relative="1" as="geometry">
            <mxPoint x="359" y="1520" as="sourcePoint" />
            <mxPoint x="359.40999999999985" y="1320" as="targetPoint" />
          </mxGeometry>
        </mxCell>
        <mxCell id="gXGEx_JHsCBYrGABIQa0-15" value="" style="curved=1;endArrow=classic;html=1;strokeWidth=3;exitX=0.5;exitY=0;exitDx=0;exitDy=0;entryX=0.5;entryY=1;entryDx=0;entryDy=0;" parent="1T-89taB87COxcUD3kPp-1" source="gXGEx_JHsCBYrGABIQa0-7" target="gXGEx_JHsCBYrGABIQa0-1" edge="1">
          <mxGeometry width="50" height="50" relative="1" as="geometry">
            <mxPoint x="600" y="1230" as="sourcePoint" />
            <mxPoint x="650" y="1180" as="targetPoint" />
            <Array as="points">
              <mxPoint x="370" y="1120" />
              <mxPoint x="390" y="1140" />
              <mxPoint x="430" y="1410" />
            </Array>
          </mxGeometry>
        </mxCell>
        <mxCell id="gXGEx_JHsCBYrGABIQa0-16" value="" style="curved=1;endArrow=classic;html=1;strokeWidth=3;exitX=0.5;exitY=0;exitDx=0;exitDy=0;entryX=0;entryY=0.75;entryDx=0;entryDy=0;" parent="1T-89taB87COxcUD3kPp-1" target="tsX-wB04UhycCPOWPUZV-39" edge="1">
          <mxGeometry width="50" height="50" relative="1" as="geometry">
            <mxPoint x="439.9999999999998" y="1160" as="sourcePoint" />
            <mxPoint x="519.9999999999998" y="1320" as="targetPoint" />
            <Array as="points">
              <mxPoint x="450" y="1120" />
              <mxPoint x="470" y="1140" />
              <mxPoint x="470" y="1460" />
              <mxPoint x="670" y="1500" />
            </Array>
          </mxGeometry>
        </mxCell>
        <mxCell id="gXGEx_JHsCBYrGABIQa0-17" value="" style="curved=1;endArrow=classic;html=1;strokeWidth=3;exitX=0.5;exitY=1;exitDx=0;exitDy=0;entryX=0.5;entryY=1;entryDx=0;entryDy=0;" parent="1T-89taB87COxcUD3kPp-1" source="gXGEx_JHsCBYrGABIQa0-1" target="gXGEx_JHsCBYrGABIQa0-12" edge="1">
          <mxGeometry width="50" height="50" relative="1" as="geometry">
            <mxPoint x="600" y="1230" as="sourcePoint" />
            <mxPoint x="650" y="1180" as="targetPoint" />
            <Array as="points">
              <mxPoint x="470" y="1400" />
            </Array>
          </mxGeometry>
        </mxCell>
        <mxCell id="gXGEx_JHsCBYrGABIQa0-19" value="" style="curved=1;endArrow=classic;html=1;strokeWidth=3;entryX=0.5;entryY=1;entryDx=0;entryDy=0;" parent="1T-89taB87COxcUD3kPp-1" target="gXGEx_JHsCBYrGABIQa0-13" edge="1">
          <mxGeometry width="50" height="50" relative="1" as="geometry">
            <mxPoint x="579.9999999999998" y="1320" as="sourcePoint" />
            <mxPoint x="650" y="1180" as="targetPoint" />
            <Array as="points">
              <mxPoint x="590" y="1360" />
              <mxPoint x="610" y="1360" />
            </Array>
          </mxGeometry>
        </mxCell>
        <mxCell id="gXGEx_JHsCBYrGABIQa0-20" value="" style="curved=1;endArrow=classic;html=1;strokeWidth=3;entryX=0.5;entryY=1;entryDx=0;entryDy=0;" parent="1T-89taB87COxcUD3kPp-1" target="gXGEx_JHsCBYrGABIQa0-2" edge="1">
          <mxGeometry width="50" height="50" relative="1" as="geometry">
            <mxPoint x="649.9999999999998" y="1100" as="sourcePoint" />
            <mxPoint x="659.9999999999998" y="1320" as="targetPoint" />
            <Array as="points">
              <mxPoint x="650" y="1150" />
              <mxPoint x="660" y="1410" />
            </Array>
          </mxGeometry>
        </mxCell>
        <mxCell id="gXGEx_JHsCBYrGABIQa0-21" value="" style="curved=1;endArrow=classic;html=1;strokeWidth=3;entryX=0.5;entryY=1;entryDx=0;entryDy=0;" parent="1T-89taB87COxcUD3kPp-1" target="gXGEx_JHsCBYrGABIQa0-11" edge="1">
          <mxGeometry width="50" height="50" relative="1" as="geometry">
            <mxPoint x="729.9999999999998" y="1100" as="sourcePoint" />
            <mxPoint x="629.9999999999998" y="1330" as="targetPoint" />
            <Array as="points">
              <mxPoint x="730" y="1350" />
              <mxPoint x="750" y="1370" />
            </Array>
          </mxGeometry>
        </mxCell>
        <mxCell id="gXGEx_JHsCBYrGABIQa0-22" value="" style="endArrow=none;html=1;strokeWidth=10;" parent="1T-89taB87COxcUD3kPp-1" edge="1">
          <mxGeometry width="50" height="50" relative="1" as="geometry">
            <mxPoint x="320" y="1100" as="sourcePoint" />
            <mxPoint x="799.9999999999998" y="1100" as="targetPoint" />
          </mxGeometry>
        </mxCell>
        <mxCell id="caf3lAcnGgKeYXmyDuDW-0" value="&lt;span style=&quot;background-color: rgb(0 , 0 , 0)&quot;&gt;&lt;font color=&quot;#FFFFFF&quot;&gt;KDN280&lt;/font&gt;&lt;/span&gt;" style="edgeLabel;html=1;align=center;verticalAlign=middle;resizable=0;points=[];" vertex="1" connectable="0" parent="gXGEx_JHsCBYrGABIQa0-22">
          <mxGeometry x="-0.3042" y="1" relative="1" as="geometry">
            <mxPoint as="offset" />
          </mxGeometry>
        </mxCell>
        <mxCell id="gXGEx_JHsCBYrGABIQa0-23" value="" style="endArrow=classic;html=1;strokeWidth=3;exitX=0.5;exitY=0;exitDx=0;exitDy=0;" parent="1T-89taB87COxcUD3kPp-1" source="gXGEx_JHsCBYrGABIQa0-10" edge="1">
          <mxGeometry width="50" height="50" relative="1" as="geometry">
            <mxPoint x="600" y="1230" as="sourcePoint" />
            <mxPoint x="559.9999999999998" y="1100" as="targetPoint" />
          </mxGeometry>
        </mxCell>
        <mxCell id="gXGEx_JHsCBYrGABIQa0-24" value="" style="endArrow=classic;html=1;strokeWidth=3;entryX=0.5;entryY=1;entryDx=0;entryDy=0;" parent="1T-89taB87COxcUD3kPp-1" target="gXGEx_JHsCBYrGABIQa0-9" edge="1">
          <mxGeometry width="50" height="50" relative="1" as="geometry">
            <mxPoint x="360" y="1100" as="sourcePoint" />
            <mxPoint x="889.9999999999998" y="1110" as="targetPoint" />
          </mxGeometry>
        </mxCell>
        <mxCell id="gXGEx_JHsCBYrGABIQa0-25" value="" style="endArrow=classic;html=1;strokeWidth=3;entryX=0.5;entryY=1;entryDx=0;entryDy=0;" parent="1T-89taB87COxcUD3kPp-1" edge="1">
          <mxGeometry width="50" height="50" relative="1" as="geometry">
            <mxPoint x="760.0000000000002" y="1100" as="sourcePoint" />
            <mxPoint x="760.0000000000002" y="1040" as="targetPoint" />
          </mxGeometry>
        </mxCell>
        <mxCell id="gXGEx_JHsCBYrGABIQa0-30" value="" style="curved=1;endArrow=classic;html=1;strokeWidth=3;exitX=0.5;exitY=0;exitDx=0;exitDy=0;" parent="1T-89taB87COxcUD3kPp-1" source="gXGEx_JHsCBYrGABIQa0-11" edge="1">
          <mxGeometry width="50" height="50" relative="1" as="geometry">
            <mxPoint x="880" y="1160" as="sourcePoint" />
            <mxPoint x="950" y="1140" as="targetPoint" />
            <Array as="points">
              <mxPoint x="760" y="1140" />
              <mxPoint x="860" y="1140" />
              <mxPoint x="910" y="1140" />
            </Array>
          </mxGeometry>
        </mxCell>
        <mxCell id="gXGEx_JHsCBYrGABIQa0-31" value="" style="curved=1;endArrow=classic;html=1;strokeWidth=3;exitX=0.5;exitY=0;exitDx=0;exitDy=0;" parent="1T-89taB87COxcUD3kPp-1" source="gXGEx_JHsCBYrGABIQa0-2" edge="1">
          <mxGeometry width="50" height="50" relative="1" as="geometry">
            <mxPoint x="689.9999999999998" y="1170" as="sourcePoint" />
            <mxPoint x="949.9999999999998" y="1120" as="targetPoint" />
            <Array as="points">
              <mxPoint x="670" y="1120" />
            </Array>
          </mxGeometry>
        </mxCell>
        <mxCell id="gXGEx_JHsCBYrGABIQa0-32" value="&lt;font style=&quot;font-size: 18px&quot;&gt;Ввод&lt;/font&gt;" style="text;html=1;strokeColor=none;fillColor=none;align=center;verticalAlign=middle;whiteSpace=wrap;rounded=0;" parent="1T-89taB87COxcUD3kPp-1" vertex="1">
          <mxGeometry x="300" y="1410" width="40" height="20" as="geometry" />
        </mxCell>
        <mxCell id="gXGEx_JHsCBYrGABIQa0-33" value="&lt;font style=&quot;font-size: 18px&quot;&gt;Генератор&lt;/font&gt;" style="text;html=1;strokeColor=none;fillColor=none;align=center;verticalAlign=middle;whiteSpace=wrap;rounded=0;" parent="1T-89taB87COxcUD3kPp-1" vertex="1">
          <mxGeometry x="600" y="1390" width="80" height="20" as="geometry" />
        </mxCell>
        <mxCell id="gXGEx_JHsCBYrGABIQa0-34" value="&lt;font style=&quot;font-size: 18px&quot;&gt;Сарай&lt;/font&gt;" style="text;html=1;strokeColor=none;fillColor=none;align=center;verticalAlign=middle;whiteSpace=wrap;rounded=0;" parent="1T-89taB87COxcUD3kPp-1" vertex="1">
          <mxGeometry x="850" y="1150" width="80" height="20" as="geometry" />
        </mxCell>
        <mxCell id="gXGEx_JHsCBYrGABIQa0-35" value="&lt;font style=&quot;font-size: 18px&quot;&gt;Чердак&lt;/font&gt;" style="text;html=1;strokeColor=none;fillColor=none;align=center;verticalAlign=middle;whiteSpace=wrap;rounded=0;" parent="1T-89taB87COxcUD3kPp-1" vertex="1">
          <mxGeometry x="850" y="1090" width="80" height="20" as="geometry" />
        </mxCell>
        <mxCell id="gXGEx_JHsCBYrGABIQa0-36" value="&lt;font color=&quot;#999900&quot;&gt;&lt;b&gt;&lt;font style=&quot;font-size: 30px&quot;&gt;PE &lt;/font&gt;&lt;/b&gt;&lt;/font&gt;&lt;br&gt;&lt;div&gt;&lt;font color=&quot;#999900&quot;&gt;&lt;b&gt;&lt;font style=&quot;font-size: 30px&quot;&gt;&lt;span style=&quot;font-size: 13px ; color: #000000 ; font-weight: normal ; text-decoration: none ; font-family: &amp;#34;arial&amp;#34; ; font-style: normal&quot;&gt;KN26E&lt;/span&gt;&lt;/font&gt;&lt;/b&gt;&lt;/font&gt;&lt;/div&gt;" style="rounded=0;whiteSpace=wrap;html=1;fillColor=#d5e8d4;strokeColor=#82b366;" parent="1T-89taB87COxcUD3kPp-1" vertex="1">
          <mxGeometry x="320" y="1560" width="480" height="80" as="geometry" />
        </mxCell>
        <mxCell id="tsX-wB04UhycCPOWPUZV-0" value="&lt;div&gt;&lt;span style=&quot;font-size: 13px ; color: #000000 ; font-weight: normal ; text-decoration: none ; font-family: &amp;#34;arial&amp;#34; ; font-style: normal&quot;&gt;&lt;font style=&quot;font-size: 18px&quot;&gt;B10&lt;/font&gt;&lt;br&gt;&lt;/span&gt;&lt;/div&gt;&lt;div&gt;&lt;font size=&quot;1&quot;&gt;&lt;span style=&quot;font-size: 9px ; color: rgb(0 , 0 , 0) ; font-weight: normal ; text-decoration: none ; font-family: &amp;#34;arial&amp;#34; ; font-style: normal&quot;&gt;MB110A&lt;/span&gt;&lt;/font&gt;&lt;/div&gt;" style="rounded=1;whiteSpace=wrap;html=1;" parent="1T-89taB87COxcUD3kPp-1" vertex="1">
          <mxGeometry x="760" y="320" width="40" height="160" as="geometry" />
        </mxCell>
        <mxCell id="tsX-wB04UhycCPOWPUZV-2" value="&lt;div style=&quot;font-size: 15px&quot;&gt;&lt;font style=&quot;font-size: 15px&quot;&gt;Розетки N&lt;/font&gt;&lt;/div&gt;&lt;div style=&quot;font-size: 13px&quot;&gt;&lt;font style=&quot;font-size: 13px&quot;&gt;KN06N&lt;br&gt;&lt;/font&gt;&lt;/div&gt;" style="rounded=0;whiteSpace=wrap;html=1;fillColor=#dae8fc;strokeColor=#6c8ebf;" parent="1T-89taB87COxcUD3kPp-1" vertex="1">
          <mxGeometry x="600" y="100" width="80" height="100" as="geometry" />
        </mxCell>
        <mxCell id="tsX-wB04UhycCPOWPUZV-4" value="&lt;div&gt;&lt;font style=&quot;font-size: 20px&quot;&gt;Свет N&lt;/font&gt;&lt;br&gt;&lt;font style=&quot;font-size: 20px&quot;&gt;&lt;span style=&quot;font-size: 13px ; color: #000000 ; font-weight: normal ; text-decoration: none ; font-family: &amp;#34;arial&amp;#34; ; font-style: normal&quot;&gt;KN10N&lt;/span&gt;&lt;/font&gt;&lt;/div&gt;" style="rounded=0;whiteSpace=wrap;html=1;fillColor=#dae8fc;strokeColor=#6c8ebf;" parent="1T-89taB87COxcUD3kPp-1" vertex="1">
          <mxGeometry x="680" y="100" width="120" height="100" as="geometry" />
        </mxCell>
        <mxCell id="tsX-wB04UhycCPOWPUZV-15" value="&lt;div&gt;Свет&lt;/div&gt;&lt;div&gt;Спальня 1&lt;br&gt;&lt;/div&gt;" style="rounded=0;whiteSpace=wrap;html=1;fillColor=#fff2cc;strokeColor=#d6b656;gradientColor=#ffd966;" parent="1T-89taB87COxcUD3kPp-1" vertex="1">
          <mxGeometry x="920" y="40" width="80" height="40" as="geometry" />
        </mxCell>
        <mxCell id="tsX-wB04UhycCPOWPUZV-16" value="&lt;div&gt;Свет&lt;/div&gt;&lt;div&gt;Душ&lt;br&gt;&lt;/div&gt;" style="rounded=0;whiteSpace=wrap;html=1;fillColor=#fff2cc;strokeColor=#d6b656;gradientColor=#ffd966;" parent="1T-89taB87COxcUD3kPp-1" vertex="1">
          <mxGeometry x="640" y="10" width="80" height="40" as="geometry" />
        </mxCell>
        <mxCell id="tsX-wB04UhycCPOWPUZV-17" value="&lt;div&gt;Розетки&lt;/div&gt;&lt;div&gt;Спальня №1&lt;br&gt;&lt;/div&gt;" style="rounded=0;whiteSpace=wrap;html=1;fillColor=#ffff88;strokeColor=#36393d;" parent="1T-89taB87COxcUD3kPp-1" vertex="1">
          <mxGeometry x="40" y="40" width="80" height="40" as="geometry" />
        </mxCell>
        <mxCell id="tsX-wB04UhycCPOWPUZV-18" value="&lt;div&gt;Розетки&lt;/div&gt;&lt;div&gt;Зал&lt;br&gt;&lt;/div&gt;" style="rounded=0;whiteSpace=wrap;html=1;fillColor=#ffff88;strokeColor=#36393d;" parent="1T-89taB87COxcUD3kPp-1" vertex="1">
          <mxGeometry x="40" y="120" width="80" height="40" as="geometry" />
        </mxCell>
        <mxCell id="tsX-wB04UhycCPOWPUZV-19" value="&lt;div&gt;Розетки&lt;/div&gt;&lt;div&gt;Спальня №2&lt;br&gt;&lt;/div&gt;" style="rounded=0;whiteSpace=wrap;html=1;fillColor=#ffff88;strokeColor=#36393d;" parent="1T-89taB87COxcUD3kPp-1" vertex="1">
          <mxGeometry x="40" y="80" width="80" height="40" as="geometry" />
        </mxCell>
        <mxCell id="tsX-wB04UhycCPOWPUZV-20" value="&lt;div&gt;Розетки&lt;/div&gt;&lt;div&gt;Столовая&lt;br&gt;&lt;/div&gt;" style="rounded=0;whiteSpace=wrap;html=1;fillColor=#ffff88;strokeColor=#36393d;" parent="1T-89taB87COxcUD3kPp-1" vertex="1">
          <mxGeometry x="40" y="200" width="80" height="40" as="geometry" />
        </mxCell>
        <mxCell id="tsX-wB04UhycCPOWPUZV-21" value="&lt;div&gt;Розетки&lt;/div&gt;&lt;div&gt;Прихожая&lt;br&gt;&lt;/div&gt;" style="rounded=0;whiteSpace=wrap;html=1;fillColor=#eeeeee;strokeColor=#36393d;" parent="1T-89taB87COxcUD3kPp-1" vertex="1">
          <mxGeometry x="40" y="290" width="80" height="40" as="geometry" />
        </mxCell>
        <mxCell id="tsX-wB04UhycCPOWPUZV-22" value="&lt;div&gt;Розетки&lt;/div&gt;&lt;div&gt;Душ-бойлер&lt;br&gt;&lt;/div&gt;" style="rounded=0;whiteSpace=wrap;html=1;fillColor=#cce5ff;strokeColor=#36393d;" parent="1T-89taB87COxcUD3kPp-1" vertex="1">
          <mxGeometry x="40" y="340" width="80" height="40" as="geometry" />
        </mxCell>
        <mxCell id="tsX-wB04UhycCPOWPUZV-23" value="&lt;div style=&quot;font-size: 11px&quot;&gt;Розетки&lt;/div&gt;&lt;div style=&quot;font-size: 11px&quot;&gt;&lt;font style=&quot;font-size: 11px&quot;&gt;Душ-стиралка&lt;/font&gt;&lt;br&gt;&lt;/div&gt;" style="rounded=0;whiteSpace=wrap;html=1;fillColor=#cce5ff;strokeColor=#36393d;" parent="1T-89taB87COxcUD3kPp-1" vertex="1">
          <mxGeometry x="40" y="380" width="80" height="40" as="geometry" />
        </mxCell>
        <mxCell id="tsX-wB04UhycCPOWPUZV-24" value="&lt;div&gt;&lt;font style=&quot;font-size: 10px&quot;&gt;Розетки&lt;/font&gt;&lt;/div&gt;&lt;div&gt;&lt;font style=&quot;font-size: 10px&quot;&gt;Кухня-мойка&lt;br&gt;&lt;/font&gt;&lt;/div&gt;" style="rounded=0;whiteSpace=wrap;html=1;fillColor=#cdeb8b;strokeColor=#36393d;" parent="1T-89taB87COxcUD3kPp-1" vertex="1">
          <mxGeometry x="40" y="430" width="80" height="40" as="geometry" />
        </mxCell>
        <mxCell id="tsX-wB04UhycCPOWPUZV-25" value="&lt;div&gt;&lt;font style=&quot;font-size: 10px&quot;&gt;Розетки&lt;/font&gt;&lt;/div&gt;&lt;div&gt;&lt;font style=&quot;font-size: 10px&quot;&gt;Кухня-вытяжка&lt;br&gt;&lt;/font&gt;&lt;/div&gt;" style="rounded=0;whiteSpace=wrap;html=1;fillColor=#cdeb8b;strokeColor=#36393d;" parent="1T-89taB87COxcUD3kPp-1" vertex="1">
          <mxGeometry x="40" y="470" width="80" height="40" as="geometry" />
        </mxCell>
        <mxCell id="tsX-wB04UhycCPOWPUZV-26" value="&lt;div&gt;&lt;font style=&quot;font-size: 10px&quot;&gt;Розетки&lt;/font&gt;&lt;/div&gt;&lt;div&gt;&lt;font style=&quot;font-size: 10px&quot;&gt;Кухня-фартук&lt;br&gt;&lt;/font&gt;&lt;/div&gt;" style="rounded=0;whiteSpace=wrap;html=1;fillColor=#cdeb8b;strokeColor=#36393d;" parent="1T-89taB87COxcUD3kPp-1" vertex="1">
          <mxGeometry x="40" y="510" width="80" height="40" as="geometry" />
        </mxCell>
        <mxCell id="tsX-wB04UhycCPOWPUZV-27" value="&lt;div style=&quot;font-size: 11px&quot;&gt;&lt;font style=&quot;font-size: 11px&quot;&gt;Розетки&lt;/font&gt;&lt;/div&gt;&lt;div style=&quot;font-size: 11px&quot;&gt;&lt;font style=&quot;font-size: 11px&quot;&gt;&lt;font style=&quot;font-size: 8px&quot;&gt;Кухня-микроволновка&lt;/font&gt;&lt;br&gt;&lt;/font&gt;&lt;/div&gt;" style="rounded=0;whiteSpace=wrap;html=1;fillColor=#cdeb8b;strokeColor=#36393d;" parent="1T-89taB87COxcUD3kPp-1" vertex="1">
          <mxGeometry x="40" y="550" width="80" height="40" as="geometry" />
        </mxCell>
        <mxCell id="tsX-wB04UhycCPOWPUZV-28" value="&lt;div style=&quot;font-size: 11px&quot;&gt;&lt;font style=&quot;font-size: 11px&quot;&gt;Розетки&lt;/font&gt;&lt;/div&gt;&lt;div style=&quot;font-size: 11px&quot;&gt;&lt;font style=&quot;font-size: 11px&quot;&gt;&lt;font style=&quot;font-size: 8px&quot;&gt;Кухня-духовка&lt;/font&gt;&lt;br&gt;&lt;/font&gt;&lt;/div&gt;" style="rounded=0;whiteSpace=wrap;html=1;fillColor=#cdeb8b;strokeColor=#36393d;" parent="1T-89taB87COxcUD3kPp-1" vertex="1">
          <mxGeometry x="40" y="590" width="80" height="40" as="geometry" />
        </mxCell>
        <mxCell id="tsX-wB04UhycCPOWPUZV-29" value="&lt;div style=&quot;font-size: 11px&quot;&gt;&lt;font style=&quot;font-size: 11px&quot;&gt;Розетки&lt;/font&gt;&lt;/div&gt;&lt;div style=&quot;font-size: 11px&quot;&gt;&lt;font style=&quot;font-size: 11px&quot;&gt;&lt;font style=&quot;font-size: 8px&quot;&gt;Кухня-котёл&lt;/font&gt;&lt;br&gt;&lt;/font&gt;&lt;/div&gt;" style="rounded=0;whiteSpace=wrap;html=1;fillColor=#cdeb8b;strokeColor=#36393d;" parent="1T-89taB87COxcUD3kPp-1" vertex="1">
          <mxGeometry x="40" y="630" width="80" height="40" as="geometry" />
        </mxCell>
        <mxCell id="tsX-wB04UhycCPOWPUZV-30" value="&lt;div style=&quot;font-size: 11px&quot;&gt;&lt;font style=&quot;font-size: 11px&quot;&gt;Розетки&lt;/font&gt;&lt;/div&gt;&lt;div style=&quot;font-size: 11px&quot;&gt;&lt;font style=&quot;font-size: 11px&quot;&gt;&lt;font style=&quot;font-size: 8px&quot;&gt;Кухня-ТВ&lt;/font&gt;&lt;br&gt;&lt;/font&gt;&lt;/div&gt;" style="rounded=0;whiteSpace=wrap;html=1;fillColor=#cdeb8b;strokeColor=#36393d;" parent="1T-89taB87COxcUD3kPp-1" vertex="1">
          <mxGeometry x="40" y="670" width="80" height="40" as="geometry" />
        </mxCell>
        <mxCell id="tsX-wB04UhycCPOWPUZV-31" value="&lt;div style=&quot;font-size: 11px&quot;&gt;&lt;font style=&quot;font-size: 11px&quot;&gt;Розетки&lt;/font&gt;&lt;/div&gt;&lt;div style=&quot;font-size: 11px&quot;&gt;&lt;font style=&quot;font-size: 11px&quot;&gt;&lt;font style=&quot;font-size: 8px&quot;&gt;Кухня-Холодильник&lt;/font&gt;&lt;br&gt;&lt;/font&gt;&lt;/div&gt;" style="rounded=0;whiteSpace=wrap;html=1;fillColor=#cdeb8b;strokeColor=#36393d;" parent="1T-89taB87COxcUD3kPp-1" vertex="1">
          <mxGeometry x="40" y="710" width="80" height="40" as="geometry" />
        </mxCell>
        <mxCell id="tsX-wB04UhycCPOWPUZV-32" value="&lt;div&gt;Зал&lt;/div&gt;&lt;div&gt;Кондиционер&lt;br&gt;&lt;/div&gt;" style="rounded=0;whiteSpace=wrap;html=1;fillColor=#ffff88;strokeColor=#36393d;" parent="1T-89taB87COxcUD3kPp-1" vertex="1">
          <mxGeometry x="40" y="160" width="80" height="40" as="geometry" />
        </mxCell>
        <mxCell id="tsX-wB04UhycCPOWPUZV-33" value="&lt;div&gt;Столовая&lt;/div&gt;&lt;div&gt;Кондиционер&lt;br&gt;&lt;/div&gt;" style="rounded=0;whiteSpace=wrap;html=1;fillColor=#ffff88;strokeColor=#36393d;" parent="1T-89taB87COxcUD3kPp-1" vertex="1">
          <mxGeometry x="40" y="240" width="80" height="40" as="geometry" />
        </mxCell>
        <mxCell id="tsX-wB04UhycCPOWPUZV-34" value="" style="curved=1;endArrow=classic;html=1;strokeWidth=9;exitX=0.5;exitY=1;exitDx=0;exitDy=0;entryX=0;entryY=0.5;entryDx=0;entryDy=0;fillColor=#d5e8d4;strokeColor=#82b366;" parent="1T-89taB87COxcUD3kPp-1" source="tsX-wB04UhycCPOWPUZV-31" target="gXGEx_JHsCBYrGABIQa0-36" edge="1">
          <mxGeometry width="50" height="50" relative="1" as="geometry">
            <mxPoint x="-120" y="660" as="sourcePoint" />
            <mxPoint x="130" y="1180" as="targetPoint" />
            <Array as="points">
              <mxPoint x="90" y="1230" />
            </Array>
          </mxGeometry>
        </mxCell>
        <mxCell id="tsX-wB04UhycCPOWPUZV-36" value="" style="curved=1;endArrow=classic;html=1;strokeWidth=3;entryX=0;entryY=0.25;entryDx=0;entryDy=0;fillColor=#dae8fc;strokeColor=#6c8ebf;exitX=0.5;exitY=0;exitDx=0;exitDy=0;" parent="1T-89taB87COxcUD3kPp-1" source="tsX-wB04UhycCPOWPUZV-4" target="tsX-wB04UhycCPOWPUZV-15" edge="1">
          <mxGeometry width="50" height="50" relative="1" as="geometry">
            <mxPoint x="860" y="30" as="sourcePoint" />
            <mxPoint x="910" y="110" as="targetPoint" />
            <Array as="points">
              <mxPoint x="790" y="50" />
            </Array>
          </mxGeometry>
        </mxCell>
        <mxCell id="tsX-wB04UhycCPOWPUZV-37" value="" style="curved=1;endArrow=none;html=1;strokeWidth=3;exitX=1;exitY=0.75;exitDx=0;exitDy=0;fillColor=#f8cecc;strokeColor=#b85450;entryX=0.5;entryY=0;entryDx=0;entryDy=0;startArrow=classic;startFill=1;endFill=0;" parent="1T-89taB87COxcUD3kPp-1" source="tsX-wB04UhycCPOWPUZV-33" target="nQWJmpluUFZDyjNe52Zx-49" edge="1">
          <mxGeometry width="50" height="50" relative="1" as="geometry">
            <mxPoint x="310" y="240" as="sourcePoint" />
            <mxPoint x="160" y="270" as="targetPoint" />
            <Array as="points" />
          </mxGeometry>
        </mxCell>
        <mxCell id="tsX-wB04UhycCPOWPUZV-38" value="" style="curved=1;endArrow=none;html=1;strokeWidth=3;exitX=1;exitY=0.25;exitDx=0;exitDy=0;fillColor=#dae8fc;strokeColor=#6c8ebf;entryX=0.5;entryY=1;entryDx=0;entryDy=0;startArrow=classic;startFill=1;endFill=0;" parent="1T-89taB87COxcUD3kPp-1" source="tsX-wB04UhycCPOWPUZV-33" target="nQWJmpluUFZDyjNe52Zx-98" edge="1">
          <mxGeometry width="50" height="50" relative="1" as="geometry">
            <mxPoint x="610" y="250" as="sourcePoint" />
            <mxPoint x="160" y="250" as="targetPoint" />
            <Array as="points">
              <mxPoint x="410" y="250" />
            </Array>
          </mxGeometry>
        </mxCell>
        <mxCell id="tsX-wB04UhycCPOWPUZV-39" value="&lt;font style=&quot;font-size: 22px&quot;&gt;Стабилизатор&lt;/font&gt;" style="rounded=0;whiteSpace=wrap;html=1;" parent="1T-89taB87COxcUD3kPp-1" vertex="1">
          <mxGeometry x="870" y="1440" width="160" height="80" as="geometry" />
        </mxCell>
        <mxCell id="tsX-wB04UhycCPOWPUZV-40" value="" style="curved=1;endArrow=classic;html=1;strokeWidth=3;exitX=0;exitY=0.25;exitDx=0;exitDy=0;entryX=0.25;entryY=1;entryDx=0;entryDy=0;" parent="1T-89taB87COxcUD3kPp-1" source="tsX-wB04UhycCPOWPUZV-39" target="gXGEx_JHsCBYrGABIQa0-10" edge="1">
          <mxGeometry width="50" height="50" relative="1" as="geometry">
            <mxPoint x="740" y="1300" as="sourcePoint" />
            <mxPoint x="790" y="1250" as="targetPoint" />
            <Array as="points">
              <mxPoint x="650" y="1450" />
              <mxPoint x="540" y="1420" />
            </Array>
          </mxGeometry>
        </mxCell>
        <mxCell id="tsX-wB04UhycCPOWPUZV-43" value="" style="curved=1;endArrow=classic;html=1;strokeWidth=3;entryX=1;entryY=0.5;entryDx=0;entryDy=0;exitX=0.5;exitY=1;exitDx=0;exitDy=0;fillColor=#d5e8d4;strokeColor=#82b366;" parent="1T-89taB87COxcUD3kPp-1" source="tsX-wB04UhycCPOWPUZV-39" target="gXGEx_JHsCBYrGABIQa0-36" edge="1">
          <mxGeometry width="50" height="50" relative="1" as="geometry">
            <mxPoint x="670" y="1300" as="sourcePoint" />
            <mxPoint x="720" y="1250" as="targetPoint" />
            <Array as="points">
              <mxPoint x="950" y="1590" />
            </Array>
          </mxGeometry>
        </mxCell>
        <mxCell id="nQWJmpluUFZDyjNe52Zx-0" value="&lt;div style=&quot;font-size: 18px&quot;&gt;&lt;font style=&quot;font-size: 18px&quot;&gt;&lt;span style=&quot;color: rgb(0 , 0 , 0) ; font-weight: normal ; text-decoration: none ; font-family: &amp;#34;arial&amp;#34; ; font-style: normal&quot;&gt;УЗО&lt;/span&gt;&lt;/font&gt;&lt;/div&gt;&lt;div style=&quot;font-size: 18px&quot;&gt;&lt;font style=&quot;font-size: 18px&quot;&gt;&lt;span style=&quot;color: rgb(0 , 0 , 0) ; font-weight: normal ; text-decoration: none ; font-family: &amp;#34;arial&amp;#34; ; font-style: normal&quot;&gt;30мА&lt;/span&gt;&lt;/font&gt;&lt;/div&gt;&lt;div style=&quot;font-size: 18px&quot;&gt;&lt;font style=&quot;font-size: 18px&quot;&gt;&lt;span style=&quot;color: rgb(0 , 0 , 0) ; font-weight: normal ; text-decoration: none ; font-family: &amp;#34;arial&amp;#34; ; font-style: normal&quot;&gt;40А&lt;/span&gt;&lt;/font&gt;&lt;/div&gt;&lt;div style=&quot;font-size: 18px&quot;&gt;&lt;span style=&quot;color: rgb(0 , 0 , 0) ; font-weight: normal ; text-decoration: none ; font-family: &amp;#34;arial&amp;#34; ; font-style: normal&quot;&gt;&lt;font style=&quot;font-size: 18px&quot;&gt;А&lt;/font&gt;&lt;br&gt;&lt;/span&gt;&lt;/div&gt;&lt;div&gt;&lt;span style=&quot;font-size: 13px ; color: #000000 ; font-weight: normal ; text-decoration: none ; font-family: &amp;#34;arial&amp;#34; ; font-style: normal&quot;&gt;CD240J&lt;/span&gt;&lt;/div&gt;" style="rounded=1;whiteSpace=wrap;html=1;" parent="1T-89taB87COxcUD3kPp-1" vertex="1">
          <mxGeometry x="640" y="880" width="80" height="160" as="geometry" />
        </mxCell>
        <mxCell id="nQWJmpluUFZDyjNe52Zx-1" value="&lt;div style=&quot;font-size: 18px&quot;&gt;&lt;font style=&quot;font-size: 18px&quot;&gt;&lt;span style=&quot;color: rgb(0 , 0 , 0) ; font-weight: normal ; text-decoration: none ; font-family: &amp;#34;arial&amp;#34; ; font-style: normal&quot;&gt;УЗО&lt;/span&gt;&lt;/font&gt;&lt;/div&gt;&lt;div style=&quot;font-size: 18px&quot;&gt;&lt;font style=&quot;font-size: 18px&quot;&gt;&lt;span style=&quot;color: rgb(0 , 0 , 0) ; font-weight: normal ; text-decoration: none ; font-family: &amp;#34;arial&amp;#34; ; font-style: normal&quot;&gt;30мА&lt;/span&gt;&lt;/font&gt;&lt;/div&gt;&lt;div style=&quot;font-size: 18px&quot;&gt;&lt;font style=&quot;font-size: 18px&quot;&gt;&lt;span style=&quot;color: rgb(0 , 0 , 0) ; font-weight: normal ; text-decoration: none ; font-family: &amp;#34;arial&amp;#34; ; font-style: normal&quot;&gt;40А&lt;/span&gt;&lt;/font&gt;&lt;/div&gt;&lt;div style=&quot;font-size: 18px&quot;&gt;&lt;span style=&quot;color: rgb(0 , 0 , 0) ; font-weight: normal ; text-decoration: none ; font-family: &amp;#34;arial&amp;#34; ; font-style: normal&quot;&gt;&lt;font style=&quot;font-size: 18px&quot;&gt;А&lt;/font&gt;&lt;br&gt;&lt;/span&gt;&lt;/div&gt;&lt;div&gt;&lt;span style=&quot;font-size: 13px ; color: #000000 ; font-weight: normal ; text-decoration: none ; font-family: &amp;#34;arial&amp;#34; ; font-style: normal&quot;&gt;CD240J&lt;/span&gt;&lt;/div&gt;" style="rounded=1;whiteSpace=wrap;html=1;" parent="1T-89taB87COxcUD3kPp-1" vertex="1">
          <mxGeometry x="560" y="880" width="80" height="160" as="geometry" />
        </mxCell>
        <mxCell id="nQWJmpluUFZDyjNe52Zx-2" value="&lt;div style=&quot;font-size: 18px&quot;&gt;&lt;font style=&quot;font-size: 18px&quot;&gt;&lt;span style=&quot;color: rgb(0 , 0 , 0) ; font-weight: normal ; text-decoration: none ; font-family: &amp;#34;arial&amp;#34; ; font-style: normal&quot;&gt;УЗО&lt;/span&gt;&lt;/font&gt;&lt;/div&gt;&lt;div style=&quot;font-size: 18px&quot;&gt;&lt;font style=&quot;font-size: 18px&quot;&gt;&lt;span style=&quot;color: rgb(0 , 0 , 0) ; font-weight: normal ; text-decoration: none ; font-family: &amp;#34;arial&amp;#34; ; font-style: normal&quot;&gt;30мА&lt;/span&gt;&lt;/font&gt;&lt;/div&gt;&lt;div style=&quot;font-size: 18px&quot;&gt;&lt;font style=&quot;font-size: 18px&quot;&gt;&lt;span style=&quot;color: rgb(0 , 0 , 0) ; font-weight: normal ; text-decoration: none ; font-family: &amp;#34;arial&amp;#34; ; font-style: normal&quot;&gt;40А&lt;/span&gt;&lt;/font&gt;&lt;/div&gt;&lt;div style=&quot;font-size: 18px&quot;&gt;&lt;span style=&quot;color: rgb(0 , 0 , 0) ; font-weight: normal ; text-decoration: none ; font-family: &amp;#34;arial&amp;#34; ; font-style: normal&quot;&gt;&lt;font style=&quot;font-size: 18px&quot;&gt;А&lt;/font&gt;&lt;br&gt;&lt;/span&gt;&lt;/div&gt;&lt;div&gt;&lt;span style=&quot;font-size: 13px ; color: #000000 ; font-weight: normal ; text-decoration: none ; font-family: &amp;#34;arial&amp;#34; ; font-style: normal&quot;&gt;CD240J&lt;/span&gt;&lt;/div&gt;" style="rounded=1;whiteSpace=wrap;html=1;" parent="1T-89taB87COxcUD3kPp-1" vertex="1">
          <mxGeometry x="480" y="880" width="80" height="160" as="geometry" />
        </mxCell>
        <mxCell id="nQWJmpluUFZDyjNe52Zx-3" value="&lt;div&gt;&lt;br&gt;&lt;/div&gt;&lt;div style=&quot;font-size: 18px&quot;&gt;&lt;font style=&quot;font-size: 18px&quot;&gt;УЗО&lt;/font&gt;&lt;br&gt;&lt;/div&gt;&lt;div style=&quot;font-size: 18px&quot;&gt;&lt;span style=&quot;color: rgb(0 , 0 , 0) ; font-weight: normal ; text-decoration: none ; font-family: &amp;#34;arial&amp;#34; ; font-style: normal&quot;&gt;&lt;font style=&quot;font-size: 18px&quot;&gt;10mA&lt;/font&gt;&lt;/span&gt;&lt;br&gt;&lt;span style=&quot;color: rgb(0 , 0 , 0) ; font-weight: normal ; text-decoration: none ; font-family: &amp;#34;arial&amp;#34; ; font-style: normal&quot;&gt;&lt;font style=&quot;font-size: 18px&quot;&gt;&lt;span style=&quot;color: rgb(0 , 0 , 0) ; font-weight: normal ; text-decoration: none ; font-family: &amp;#34;arial&amp;#34; ; font-style: normal&quot;&gt;B16&lt;/span&gt;&lt;/font&gt;&lt;/span&gt;&lt;/div&gt;&lt;div style=&quot;font-size: 18px&quot;&gt;&lt;span style=&quot;color: rgb(0 , 0 , 0) ; font-weight: normal ; text-decoration: none ; font-family: &amp;#34;arial&amp;#34; ; font-style: normal&quot;&gt;&lt;font style=&quot;font-size: 18px&quot;&gt;&lt;span style=&quot;color: rgb(0 , 0 , 0) ; font-weight: normal ; text-decoration: none ; font-family: &amp;#34;arial&amp;#34; ; font-style: normal&quot;&gt;А&lt;br&gt;&lt;/span&gt;&lt;/font&gt;&lt;/span&gt;&lt;/div&gt;&lt;div&gt;&lt;span style=&quot;font-size: 13px ; color: #000000 ; font-weight: normal ; text-decoration: none ; font-family: &amp;#34;arial&amp;#34; ; font-style: normal&quot;&gt;CC216J&lt;/span&gt;&lt;br&gt;&lt;span style=&quot;font-size: 13px ; color: #000000 ; font-weight: normal ; text-decoration: none ; font-family: &amp;#34;arial&amp;#34; ; font-style: normal&quot;&gt;&lt;/span&gt;&lt;/div&gt;" style="rounded=1;whiteSpace=wrap;html=1;" parent="1T-89taB87COxcUD3kPp-1" vertex="1">
          <mxGeometry x="400" y="880" width="80" height="160" as="geometry" />
        </mxCell>
        <mxCell id="nQWJmpluUFZDyjNe52Zx-4" value="" style="endArrow=classic;html=1;strokeWidth=3;entryX=0.5;entryY=1;entryDx=0;entryDy=0;" parent="1T-89taB87COxcUD3kPp-1" edge="1">
          <mxGeometry width="50" height="50" relative="1" as="geometry">
            <mxPoint x="439.5" y="1100" as="sourcePoint" />
            <mxPoint x="439.5" y="1040" as="targetPoint" />
          </mxGeometry>
        </mxCell>
        <mxCell id="nQWJmpluUFZDyjNe52Zx-5" value="" style="endArrow=classic;html=1;strokeWidth=3;entryX=0.5;entryY=1;entryDx=0;entryDy=0;" parent="1T-89taB87COxcUD3kPp-1" edge="1">
          <mxGeometry width="50" height="50" relative="1" as="geometry">
            <mxPoint x="519" y="1100" as="sourcePoint" />
            <mxPoint x="519" y="1040" as="targetPoint" />
          </mxGeometry>
        </mxCell>
        <mxCell id="nQWJmpluUFZDyjNe52Zx-6" value="" style="endArrow=classic;html=1;strokeWidth=3;entryX=0.5;entryY=1;entryDx=0;entryDy=0;" parent="1T-89taB87COxcUD3kPp-1" edge="1">
          <mxGeometry width="50" height="50" relative="1" as="geometry">
            <mxPoint x="600" y="1100" as="sourcePoint" />
            <mxPoint x="600" y="1040" as="targetPoint" />
          </mxGeometry>
        </mxCell>
        <mxCell id="nQWJmpluUFZDyjNe52Zx-7" value="" style="endArrow=classic;html=1;strokeWidth=3;entryX=0.5;entryY=1;entryDx=0;entryDy=0;" parent="1T-89taB87COxcUD3kPp-1" edge="1">
          <mxGeometry width="50" height="50" relative="1" as="geometry">
            <mxPoint x="679.5" y="1100" as="sourcePoint" />
            <mxPoint x="679.5" y="1040" as="targetPoint" />
          </mxGeometry>
        </mxCell>
        <mxCell id="nQWJmpluUFZDyjNe52Zx-8" value="&lt;div&gt;&lt;span style=&quot;font-size: 13px ; color: #000000 ; font-weight: normal ; text-decoration: none ; font-family: &amp;#34;arial&amp;#34; ; font-style: normal&quot;&gt;&lt;font style=&quot;font-size: 18px&quot;&gt;B10&lt;/font&gt;&lt;br&gt;&lt;/span&gt;&lt;/div&gt;&lt;div&gt;&lt;font size=&quot;1&quot;&gt;&lt;span style=&quot;font-size: 9px ; color: rgb(0 , 0 , 0) ; font-weight: normal ; text-decoration: none ; font-family: &amp;#34;arial&amp;#34; ; font-style: normal&quot;&gt;MB110A&lt;/span&gt;&lt;/font&gt;&lt;/div&gt;" style="rounded=1;whiteSpace=wrap;html=1;" parent="1T-89taB87COxcUD3kPp-1" vertex="1">
          <mxGeometry x="440" y="320" width="40" height="160" as="geometry" />
        </mxCell>
        <mxCell id="nQWJmpluUFZDyjNe52Zx-9" value="&lt;div&gt;&lt;span style=&quot;font-size: 13px ; color: #000000 ; font-weight: normal ; text-decoration: none ; font-family: &amp;#34;arial&amp;#34; ; font-style: normal&quot;&gt;&lt;font style=&quot;font-size: 18px&quot;&gt;B10&lt;/font&gt;&lt;br&gt;&lt;/span&gt;&lt;/div&gt;&lt;div&gt;&lt;font size=&quot;1&quot;&gt;&lt;span style=&quot;font-size: 9px ; color: rgb(0 , 0 , 0) ; font-weight: normal ; text-decoration: none ; font-family: &amp;#34;arial&amp;#34; ; font-style: normal&quot;&gt;MB110A&lt;/span&gt;&lt;/font&gt;&lt;/div&gt;" style="rounded=1;whiteSpace=wrap;html=1;" parent="1T-89taB87COxcUD3kPp-1" vertex="1">
          <mxGeometry x="560" y="320" width="40" height="160" as="geometry" />
        </mxCell>
        <mxCell id="nQWJmpluUFZDyjNe52Zx-10" value="&lt;div&gt;&lt;span style=&quot;font-size: 13px ; color: #000000 ; font-weight: normal ; text-decoration: none ; font-family: &amp;#34;arial&amp;#34; ; font-style: normal&quot;&gt;&lt;font style=&quot;font-size: 18px&quot;&gt;B10&lt;/font&gt;&lt;br&gt;&lt;/span&gt;&lt;/div&gt;&lt;div&gt;&lt;font size=&quot;1&quot;&gt;&lt;span style=&quot;font-size: 9px ; color: rgb(0 , 0 , 0) ; font-weight: normal ; text-decoration: none ; font-family: &amp;#34;arial&amp;#34; ; font-style: normal&quot;&gt;MB110A&lt;/span&gt;&lt;/font&gt;&lt;/div&gt;" style="rounded=1;whiteSpace=wrap;html=1;" parent="1T-89taB87COxcUD3kPp-1" vertex="1">
          <mxGeometry x="480" y="320" width="40" height="160" as="geometry" />
        </mxCell>
        <mxCell id="nQWJmpluUFZDyjNe52Zx-11" value="&lt;div&gt;&lt;span style=&quot;font-size: 13px ; color: #000000 ; font-weight: normal ; text-decoration: none ; font-family: &amp;#34;arial&amp;#34; ; font-style: normal&quot;&gt;&lt;font style=&quot;font-size: 18px&quot;&gt;B10&lt;/font&gt;&lt;br&gt;&lt;/span&gt;&lt;/div&gt;&lt;div&gt;&lt;font size=&quot;1&quot;&gt;&lt;span style=&quot;font-size: 9px ; color: rgb(0 , 0 , 0) ; font-weight: normal ; text-decoration: none ; font-family: &amp;#34;arial&amp;#34; ; font-style: normal&quot;&gt;MB110A&lt;/span&gt;&lt;/font&gt;&lt;/div&gt;" style="rounded=1;whiteSpace=wrap;html=1;" parent="1T-89taB87COxcUD3kPp-1" vertex="1">
          <mxGeometry x="520" y="320" width="40" height="160" as="geometry" />
        </mxCell>
        <mxCell id="nQWJmpluUFZDyjNe52Zx-12" value="&lt;div&gt;&lt;span style=&quot;font-size: 13px ; color: #000000 ; font-weight: normal ; text-decoration: none ; font-family: &amp;#34;arial&amp;#34; ; font-style: normal&quot;&gt;&lt;font style=&quot;font-size: 18px&quot;&gt;B10&lt;/font&gt;&lt;br&gt;&lt;/span&gt;&lt;/div&gt;&lt;div&gt;&lt;font size=&quot;1&quot;&gt;&lt;span style=&quot;font-size: 9px ; color: rgb(0 , 0 , 0) ; font-weight: normal ; text-decoration: none ; font-family: &amp;#34;arial&amp;#34; ; font-style: normal&quot;&gt;MB110A&lt;/span&gt;&lt;/font&gt;&lt;/div&gt;" style="rounded=1;whiteSpace=wrap;html=1;" parent="1T-89taB87COxcUD3kPp-1" vertex="1">
          <mxGeometry x="680" y="320" width="40" height="160" as="geometry" />
        </mxCell>
        <mxCell id="nQWJmpluUFZDyjNe52Zx-13" value="&lt;div&gt;&lt;span style=&quot;font-size: 13px ; color: #000000 ; font-weight: normal ; text-decoration: none ; font-family: &amp;#34;arial&amp;#34; ; font-style: normal&quot;&gt;&lt;font style=&quot;font-size: 18px&quot;&gt;B10&lt;/font&gt;&lt;br&gt;&lt;/span&gt;&lt;/div&gt;&lt;div&gt;&lt;font size=&quot;1&quot;&gt;&lt;span style=&quot;font-size: 9px ; color: rgb(0 , 0 , 0) ; font-weight: normal ; text-decoration: none ; font-family: &amp;#34;arial&amp;#34; ; font-style: normal&quot;&gt;MB110A&lt;/span&gt;&lt;/font&gt;&lt;/div&gt;" style="rounded=1;whiteSpace=wrap;html=1;" parent="1T-89taB87COxcUD3kPp-1" vertex="1">
          <mxGeometry x="600" y="320" width="40" height="160" as="geometry" />
        </mxCell>
        <mxCell id="nQWJmpluUFZDyjNe52Zx-14" value="&lt;div&gt;&lt;span style=&quot;font-size: 13px ; color: #000000 ; font-weight: normal ; text-decoration: none ; font-family: &amp;#34;arial&amp;#34; ; font-style: normal&quot;&gt;&lt;font style=&quot;font-size: 18px&quot;&gt;B10&lt;/font&gt;&lt;br&gt;&lt;/span&gt;&lt;/div&gt;&lt;div&gt;&lt;font size=&quot;1&quot;&gt;&lt;span style=&quot;font-size: 9px ; color: rgb(0 , 0 , 0) ; font-weight: normal ; text-decoration: none ; font-family: &amp;#34;arial&amp;#34; ; font-style: normal&quot;&gt;MB110A&lt;/span&gt;&lt;/font&gt;&lt;/div&gt;" style="rounded=1;whiteSpace=wrap;html=1;" parent="1T-89taB87COxcUD3kPp-1" vertex="1">
          <mxGeometry x="640" y="320" width="40" height="160" as="geometry" />
        </mxCell>
        <mxCell id="nQWJmpluUFZDyjNe52Zx-15" value="&lt;div&gt;&lt;span style=&quot;font-size: 13px ; color: #000000 ; font-weight: normal ; text-decoration: none ; font-family: &amp;#34;arial&amp;#34; ; font-style: normal&quot;&gt;&lt;font style=&quot;font-size: 18px&quot;&gt;B10&lt;/font&gt;&lt;br&gt;&lt;/span&gt;&lt;/div&gt;&lt;div&gt;&lt;font size=&quot;1&quot;&gt;&lt;span style=&quot;font-size: 9px ; color: rgb(0 , 0 , 0) ; font-weight: normal ; text-decoration: none ; font-family: &amp;#34;arial&amp;#34; ; font-style: normal&quot;&gt;MB110A&lt;/span&gt;&lt;/font&gt;&lt;/div&gt;" style="rounded=1;whiteSpace=wrap;html=1;" parent="1T-89taB87COxcUD3kPp-1" vertex="1">
          <mxGeometry x="720" y="320" width="40" height="160" as="geometry" />
        </mxCell>
        <mxCell id="nQWJmpluUFZDyjNe52Zx-16" value="" style="endArrow=none;html=1;strokeWidth=10;fillColor=#f8cecc;strokeColor=#b85450;" parent="1T-89taB87COxcUD3kPp-1" edge="1">
          <mxGeometry width="50" height="50" relative="1" as="geometry">
            <mxPoint x="490" y="520" as="sourcePoint" />
            <mxPoint x="790" y="520" as="targetPoint" />
          </mxGeometry>
        </mxCell>
        <mxCell id="caf3lAcnGgKeYXmyDuDW-2" value="&lt;span style=&quot;background-color: rgb(184 , 84 , 80)&quot;&gt;KDN180&lt;/span&gt;" style="edgeLabel;html=1;align=center;verticalAlign=middle;resizable=0;points=[];" vertex="1" connectable="0" parent="nQWJmpluUFZDyjNe52Zx-16">
          <mxGeometry x="-0.26" y="2" relative="1" as="geometry">
            <mxPoint as="offset" />
          </mxGeometry>
        </mxCell>
        <mxCell id="nQWJmpluUFZDyjNe52Zx-17" value="" style="endArrow=classic;html=1;strokeWidth=3;entryX=0.5;entryY=1;entryDx=0;entryDy=0;fillColor=#f8cecc;strokeColor=#b85450;" parent="1T-89taB87COxcUD3kPp-1" edge="1">
          <mxGeometry width="50" height="50" relative="1" as="geometry">
            <mxPoint x="780" y="520" as="sourcePoint" />
            <mxPoint x="779.5000000000002" y="480" as="targetPoint" />
          </mxGeometry>
        </mxCell>
        <mxCell id="nQWJmpluUFZDyjNe52Zx-18" value="" style="endArrow=classic;html=1;strokeWidth=3;entryX=0.5;entryY=1;entryDx=0;entryDy=0;fillColor=#f8cecc;strokeColor=#b85450;" parent="1T-89taB87COxcUD3kPp-1" edge="1">
          <mxGeometry width="50" height="50" relative="1" as="geometry">
            <mxPoint x="500.25" y="520" as="sourcePoint" />
            <mxPoint x="499.7500000000002" y="480" as="targetPoint" />
          </mxGeometry>
        </mxCell>
        <mxCell id="nQWJmpluUFZDyjNe52Zx-19" value="" style="endArrow=classic;html=1;strokeWidth=3;entryX=0.5;entryY=1;entryDx=0;entryDy=0;fillColor=#f8cecc;strokeColor=#b85450;" parent="1T-89taB87COxcUD3kPp-1" edge="1">
          <mxGeometry width="50" height="50" relative="1" as="geometry">
            <mxPoint x="540.25" y="520" as="sourcePoint" />
            <mxPoint x="539.7500000000002" y="480" as="targetPoint" />
          </mxGeometry>
        </mxCell>
        <mxCell id="nQWJmpluUFZDyjNe52Zx-20" value="" style="endArrow=classic;html=1;strokeWidth=3;entryX=0.5;entryY=1;entryDx=0;entryDy=0;fillColor=#f8cecc;strokeColor=#b85450;" parent="1T-89taB87COxcUD3kPp-1" edge="1">
          <mxGeometry width="50" height="50" relative="1" as="geometry">
            <mxPoint x="580.25" y="520" as="sourcePoint" />
            <mxPoint x="579.7500000000002" y="480" as="targetPoint" />
          </mxGeometry>
        </mxCell>
        <mxCell id="nQWJmpluUFZDyjNe52Zx-21" value="" style="endArrow=classic;html=1;strokeWidth=3;entryX=0.5;entryY=1;entryDx=0;entryDy=0;fillColor=#f8cecc;strokeColor=#b85450;" parent="1T-89taB87COxcUD3kPp-1" edge="1">
          <mxGeometry width="50" height="50" relative="1" as="geometry">
            <mxPoint x="620.25" y="520" as="sourcePoint" />
            <mxPoint x="619.7500000000002" y="480" as="targetPoint" />
          </mxGeometry>
        </mxCell>
        <mxCell id="nQWJmpluUFZDyjNe52Zx-22" value="" style="endArrow=classic;html=1;strokeWidth=3;entryX=0.5;entryY=1;entryDx=0;entryDy=0;fillColor=#f8cecc;strokeColor=#b85450;" parent="1T-89taB87COxcUD3kPp-1" edge="1">
          <mxGeometry width="50" height="50" relative="1" as="geometry">
            <mxPoint x="660.25" y="520" as="sourcePoint" />
            <mxPoint x="659.7500000000002" y="480" as="targetPoint" />
          </mxGeometry>
        </mxCell>
        <mxCell id="nQWJmpluUFZDyjNe52Zx-23" value="" style="endArrow=classic;html=1;strokeWidth=3;entryX=0.5;entryY=1;entryDx=0;entryDy=0;fillColor=#f8cecc;strokeColor=#b85450;" parent="1T-89taB87COxcUD3kPp-1" edge="1">
          <mxGeometry width="50" height="50" relative="1" as="geometry">
            <mxPoint x="700.25" y="520" as="sourcePoint" />
            <mxPoint x="699.7500000000002" y="480" as="targetPoint" />
          </mxGeometry>
        </mxCell>
        <mxCell id="nQWJmpluUFZDyjNe52Zx-24" value="" style="endArrow=classic;html=1;strokeWidth=3;entryX=0.5;entryY=1;entryDx=0;entryDy=0;fillColor=#f8cecc;strokeColor=#b85450;" parent="1T-89taB87COxcUD3kPp-1" edge="1">
          <mxGeometry width="50" height="50" relative="1" as="geometry">
            <mxPoint x="740.25" y="520" as="sourcePoint" />
            <mxPoint x="739.7500000000002" y="480" as="targetPoint" />
          </mxGeometry>
        </mxCell>
        <mxCell id="nQWJmpluUFZDyjNe52Zx-25" value="&lt;div&gt;Свет&lt;/div&gt;&lt;div&gt;Спальня 2&lt;br&gt;&lt;/div&gt;" style="rounded=0;whiteSpace=wrap;html=1;fillColor=#fff2cc;strokeColor=#d6b656;gradientColor=#ffd966;" parent="1T-89taB87COxcUD3kPp-1" vertex="1">
          <mxGeometry x="920" y="80" width="80" height="40" as="geometry" />
        </mxCell>
        <mxCell id="nQWJmpluUFZDyjNe52Zx-26" value="&lt;div&gt;Свет&lt;/div&gt;&lt;div&gt;Зал&lt;br&gt;&lt;/div&gt;" style="rounded=0;whiteSpace=wrap;html=1;fillColor=#fff2cc;strokeColor=#d6b656;gradientColor=#ffd966;" parent="1T-89taB87COxcUD3kPp-1" vertex="1">
          <mxGeometry x="920" y="120" width="80" height="40" as="geometry" />
        </mxCell>
        <mxCell id="nQWJmpluUFZDyjNe52Zx-27" value="&lt;div&gt;Свет&lt;/div&gt;&lt;div&gt;Столовая&lt;br&gt;&lt;/div&gt;" style="rounded=0;whiteSpace=wrap;html=1;fillColor=#fff2cc;strokeColor=#d6b656;gradientColor=#ffd966;" parent="1T-89taB87COxcUD3kPp-1" vertex="1">
          <mxGeometry x="920" y="160" width="80" height="40" as="geometry" />
        </mxCell>
        <mxCell id="nQWJmpluUFZDyjNe52Zx-28" value="&lt;div&gt;Свет&lt;/div&gt;&lt;div&gt;Кухня&lt;br&gt;&lt;/div&gt;" style="rounded=0;whiteSpace=wrap;html=1;fillColor=#fff2cc;strokeColor=#d6b656;gradientColor=#ffd966;" parent="1T-89taB87COxcUD3kPp-1" vertex="1">
          <mxGeometry x="920" y="200" width="80" height="40" as="geometry" />
        </mxCell>
        <mxCell id="nQWJmpluUFZDyjNe52Zx-29" value="&lt;div&gt;Свет&lt;/div&gt;&lt;div&gt;Прихожая&lt;br&gt;&lt;/div&gt;" style="rounded=0;whiteSpace=wrap;html=1;fillColor=#fff2cc;strokeColor=#d6b656;gradientColor=#ffd966;" parent="1T-89taB87COxcUD3kPp-1" vertex="1">
          <mxGeometry x="920" y="240" width="80" height="40" as="geometry" />
        </mxCell>
        <mxCell id="nQWJmpluUFZDyjNe52Zx-30" value="&lt;div&gt;Свет&lt;/div&gt;&lt;div&gt;Веранда&lt;br&gt;&lt;/div&gt;" style="rounded=0;whiteSpace=wrap;html=1;fillColor=#fff2cc;strokeColor=#d6b656;gradientColor=#ffd966;" parent="1T-89taB87COxcUD3kPp-1" vertex="1">
          <mxGeometry x="920" y="280" width="80" height="40" as="geometry" />
        </mxCell>
        <mxCell id="nQWJmpluUFZDyjNe52Zx-31" value="&lt;div&gt;Свет&lt;/div&gt;&lt;div&gt;Чердак&lt;br&gt;&lt;/div&gt;" style="rounded=0;whiteSpace=wrap;html=1;fillColor=#fff2cc;strokeColor=#d6b656;gradientColor=#ffd966;" parent="1T-89taB87COxcUD3kPp-1" vertex="1">
          <mxGeometry x="920" y="320" width="80" height="40" as="geometry" />
        </mxCell>
        <mxCell id="nQWJmpluUFZDyjNe52Zx-33" value="" style="curved=1;endArrow=classic;html=1;strokeWidth=3;entryX=0;entryY=0.25;entryDx=0;entryDy=0;fillColor=#dae8fc;strokeColor=#6c8ebf;exitX=0.75;exitY=0;exitDx=0;exitDy=0;" parent="1T-89taB87COxcUD3kPp-1" source="tsX-wB04UhycCPOWPUZV-4" target="nQWJmpluUFZDyjNe52Zx-25" edge="1">
          <mxGeometry width="50" height="50" relative="1" as="geometry">
            <mxPoint x="730" y="110" as="sourcePoint" />
            <mxPoint x="930" y="70" as="targetPoint" />
            <Array as="points">
              <mxPoint x="850" y="60" />
            </Array>
          </mxGeometry>
        </mxCell>
        <mxCell id="nQWJmpluUFZDyjNe52Zx-34" value="" style="curved=1;endArrow=classic;html=1;strokeWidth=3;entryX=0;entryY=0.25;entryDx=0;entryDy=0;fillColor=#dae8fc;strokeColor=#6c8ebf;exitX=1;exitY=0;exitDx=0;exitDy=0;" parent="1T-89taB87COxcUD3kPp-1" source="tsX-wB04UhycCPOWPUZV-4" target="nQWJmpluUFZDyjNe52Zx-26" edge="1">
          <mxGeometry width="50" height="50" relative="1" as="geometry">
            <mxPoint x="740" y="120" as="sourcePoint" />
            <mxPoint x="940" y="80" as="targetPoint" />
            <Array as="points">
              <mxPoint x="880" y="110" />
            </Array>
          </mxGeometry>
        </mxCell>
        <mxCell id="nQWJmpluUFZDyjNe52Zx-35" value="" style="curved=1;endArrow=classic;html=1;strokeWidth=3;entryX=0;entryY=0.25;entryDx=0;entryDy=0;fillColor=#dae8fc;strokeColor=#6c8ebf;exitX=1;exitY=0.25;exitDx=0;exitDy=0;" parent="1T-89taB87COxcUD3kPp-1" source="tsX-wB04UhycCPOWPUZV-4" target="nQWJmpluUFZDyjNe52Zx-27" edge="1">
          <mxGeometry width="50" height="50" relative="1" as="geometry">
            <mxPoint x="750" y="130" as="sourcePoint" />
            <mxPoint x="950" y="90" as="targetPoint" />
            <Array as="points">
              <mxPoint x="870" y="150" />
            </Array>
          </mxGeometry>
        </mxCell>
        <mxCell id="nQWJmpluUFZDyjNe52Zx-36" value="" style="curved=1;endArrow=classic;html=1;strokeWidth=3;entryX=0;entryY=0.25;entryDx=0;entryDy=0;fillColor=#dae8fc;strokeColor=#6c8ebf;exitX=1;exitY=0.5;exitDx=0;exitDy=0;" parent="1T-89taB87COxcUD3kPp-1" source="tsX-wB04UhycCPOWPUZV-4" target="nQWJmpluUFZDyjNe52Zx-28" edge="1">
          <mxGeometry width="50" height="50" relative="1" as="geometry">
            <mxPoint x="760" y="140" as="sourcePoint" />
            <mxPoint x="960" y="100" as="targetPoint" />
            <Array as="points" />
          </mxGeometry>
        </mxCell>
        <mxCell id="nQWJmpluUFZDyjNe52Zx-37" value="" style="curved=1;endArrow=classic;html=1;strokeWidth=3;entryX=0;entryY=0.25;entryDx=0;entryDy=0;fillColor=#dae8fc;strokeColor=#6c8ebf;exitX=1;exitY=0.75;exitDx=0;exitDy=0;" parent="1T-89taB87COxcUD3kPp-1" source="tsX-wB04UhycCPOWPUZV-4" target="nQWJmpluUFZDyjNe52Zx-29" edge="1">
          <mxGeometry width="50" height="50" relative="1" as="geometry">
            <mxPoint x="770" y="150" as="sourcePoint" />
            <mxPoint x="970" y="110" as="targetPoint" />
            <Array as="points">
              <mxPoint x="860" y="200" />
            </Array>
          </mxGeometry>
        </mxCell>
        <mxCell id="nQWJmpluUFZDyjNe52Zx-38" value="" style="curved=1;endArrow=classic;html=1;strokeWidth=3;entryX=0;entryY=0.25;entryDx=0;entryDy=0;fillColor=#dae8fc;strokeColor=#6c8ebf;exitX=1;exitY=1;exitDx=0;exitDy=0;" parent="1T-89taB87COxcUD3kPp-1" source="tsX-wB04UhycCPOWPUZV-4" target="nQWJmpluUFZDyjNe52Zx-30" edge="1">
          <mxGeometry width="50" height="50" relative="1" as="geometry">
            <mxPoint x="780" y="160" as="sourcePoint" />
            <mxPoint x="980" y="120" as="targetPoint" />
            <Array as="points">
              <mxPoint x="860" y="230" />
            </Array>
          </mxGeometry>
        </mxCell>
        <mxCell id="nQWJmpluUFZDyjNe52Zx-39" value="" style="curved=1;endArrow=classic;html=1;strokeWidth=3;entryX=0;entryY=0.25;entryDx=0;entryDy=0;fillColor=#dae8fc;strokeColor=#6c8ebf;exitX=0.75;exitY=1;exitDx=0;exitDy=0;" parent="1T-89taB87COxcUD3kPp-1" source="tsX-wB04UhycCPOWPUZV-4" target="nQWJmpluUFZDyjNe52Zx-31" edge="1">
          <mxGeometry width="50" height="50" relative="1" as="geometry">
            <mxPoint x="790" y="170" as="sourcePoint" />
            <mxPoint x="990" y="130" as="targetPoint" />
            <Array as="points" />
          </mxGeometry>
        </mxCell>
        <mxCell id="nQWJmpluUFZDyjNe52Zx-41" value="" style="endArrow=classic;html=1;strokeWidth=3;fillColor=#f8cecc;strokeColor=#b85450;exitX=0.5;exitY=0;exitDx=0;exitDy=0;entryX=0;entryY=0.75;entryDx=0;entryDy=0;" parent="1T-89taB87COxcUD3kPp-1" source="nQWJmpluUFZDyjNe52Zx-10" target="tsX-wB04UhycCPOWPUZV-15" edge="1">
          <mxGeometry width="50" height="50" relative="1" as="geometry">
            <mxPoint x="525.16" y="280" as="sourcePoint" />
            <mxPoint x="900" y="70" as="targetPoint" />
            <Array as="points">
              <mxPoint x="840" y="210" />
            </Array>
          </mxGeometry>
        </mxCell>
        <mxCell id="nQWJmpluUFZDyjNe52Zx-42" value="" style="endArrow=classic;html=1;strokeWidth=3;entryX=0;entryY=0.75;entryDx=0;entryDy=0;fillColor=#f8cecc;strokeColor=#b85450;exitX=0.5;exitY=0;exitDx=0;exitDy=0;" parent="1T-89taB87COxcUD3kPp-1" source="nQWJmpluUFZDyjNe52Zx-11" target="nQWJmpluUFZDyjNe52Zx-25" edge="1">
          <mxGeometry width="50" height="50" relative="1" as="geometry">
            <mxPoint x="510" y="329.9999999999999" as="sourcePoint" />
            <mxPoint x="930" y="80" as="targetPoint" />
            <Array as="points">
              <mxPoint x="840" y="220" />
            </Array>
          </mxGeometry>
        </mxCell>
        <mxCell id="nQWJmpluUFZDyjNe52Zx-43" value="" style="endArrow=classic;html=1;strokeWidth=3;entryX=0;entryY=0.75;entryDx=0;entryDy=0;fillColor=#f8cecc;strokeColor=#b85450;exitX=0.5;exitY=0;exitDx=0;exitDy=0;" parent="1T-89taB87COxcUD3kPp-1" source="nQWJmpluUFZDyjNe52Zx-9" target="nQWJmpluUFZDyjNe52Zx-26" edge="1">
          <mxGeometry width="50" height="50" relative="1" as="geometry">
            <mxPoint x="520" y="339.9999999999999" as="sourcePoint" />
            <mxPoint x="940" y="90" as="targetPoint" />
            <Array as="points">
              <mxPoint x="850" y="230" />
            </Array>
          </mxGeometry>
        </mxCell>
        <mxCell id="nQWJmpluUFZDyjNe52Zx-44" value="" style="endArrow=classic;html=1;strokeWidth=3;entryX=0;entryY=0.75;entryDx=0;entryDy=0;fillColor=#f8cecc;strokeColor=#b85450;exitX=0.5;exitY=0;exitDx=0;exitDy=0;" parent="1T-89taB87COxcUD3kPp-1" source="nQWJmpluUFZDyjNe52Zx-13" target="nQWJmpluUFZDyjNe52Zx-27" edge="1">
          <mxGeometry width="50" height="50" relative="1" as="geometry">
            <mxPoint x="530" y="349.9999999999999" as="sourcePoint" />
            <mxPoint x="950" y="100" as="targetPoint" />
            <Array as="points">
              <mxPoint x="850" y="240" />
            </Array>
          </mxGeometry>
        </mxCell>
        <mxCell id="nQWJmpluUFZDyjNe52Zx-45" value="" style="endArrow=classic;html=1;strokeWidth=3;entryX=0;entryY=0.75;entryDx=0;entryDy=0;fillColor=#f8cecc;strokeColor=#b85450;exitX=0.5;exitY=0;exitDx=0;exitDy=0;" parent="1T-89taB87COxcUD3kPp-1" source="nQWJmpluUFZDyjNe52Zx-14" target="nQWJmpluUFZDyjNe52Zx-28" edge="1">
          <mxGeometry width="50" height="50" relative="1" as="geometry">
            <mxPoint x="540" y="359.9999999999999" as="sourcePoint" />
            <mxPoint x="960" y="110" as="targetPoint" />
          </mxGeometry>
        </mxCell>
        <mxCell id="nQWJmpluUFZDyjNe52Zx-46" value="" style="endArrow=classic;html=1;strokeWidth=3;entryX=0;entryY=0.75;entryDx=0;entryDy=0;fillColor=#f8cecc;strokeColor=#b85450;exitX=0.5;exitY=0;exitDx=0;exitDy=0;" parent="1T-89taB87COxcUD3kPp-1" source="nQWJmpluUFZDyjNe52Zx-12" target="nQWJmpluUFZDyjNe52Zx-29" edge="1">
          <mxGeometry width="50" height="50" relative="1" as="geometry">
            <mxPoint x="550" y="369.9999999999999" as="sourcePoint" />
            <mxPoint x="970" y="120" as="targetPoint" />
            <Array as="points">
              <mxPoint x="750" y="300" />
            </Array>
          </mxGeometry>
        </mxCell>
        <mxCell id="nQWJmpluUFZDyjNe52Zx-47" value="" style="endArrow=classic;html=1;strokeWidth=3;entryX=0;entryY=0.75;entryDx=0;entryDy=0;fillColor=#f8cecc;strokeColor=#b85450;exitX=0.5;exitY=0;exitDx=0;exitDy=0;" parent="1T-89taB87COxcUD3kPp-1" source="nQWJmpluUFZDyjNe52Zx-15" target="nQWJmpluUFZDyjNe52Zx-30" edge="1">
          <mxGeometry width="50" height="50" relative="1" as="geometry">
            <mxPoint x="560" y="379.9999999999999" as="sourcePoint" />
            <mxPoint x="980" y="130" as="targetPoint" />
            <Array as="points">
              <mxPoint x="800" y="300" />
            </Array>
          </mxGeometry>
        </mxCell>
        <mxCell id="nQWJmpluUFZDyjNe52Zx-48" value="" style="endArrow=classic;html=1;strokeWidth=3;entryX=0;entryY=0.75;entryDx=0;entryDy=0;fillColor=#f8cecc;strokeColor=#b85450;exitX=0.5;exitY=0;exitDx=0;exitDy=0;" parent="1T-89taB87COxcUD3kPp-1" source="tsX-wB04UhycCPOWPUZV-0" target="nQWJmpluUFZDyjNe52Zx-31" edge="1">
          <mxGeometry width="50" height="50" relative="1" as="geometry">
            <mxPoint x="570" y="389.9999999999999" as="sourcePoint" />
            <mxPoint x="990" y="140" as="targetPoint" />
            <Array as="points">
              <mxPoint x="790" y="310" />
              <mxPoint x="880" y="320" />
            </Array>
          </mxGeometry>
        </mxCell>
        <mxCell id="nQWJmpluUFZDyjNe52Zx-49" value="&lt;div&gt;&lt;span style=&quot;font-size: 13px ; color: #000000 ; font-weight: normal ; text-decoration: none ; font-family: &amp;#34;arial&amp;#34; ; font-style: normal&quot;&gt;&lt;font style=&quot;font-size: 18px&quot;&gt;B16&lt;/font&gt;&lt;br&gt;&lt;/span&gt;&lt;/div&gt;&lt;div&gt;&lt;font size=&quot;1&quot;&gt;&lt;span style=&quot;font-size: 9px ; color: rgb(0 , 0 , 0) ; font-weight: normal ; text-decoration: none ; font-family: &amp;#34;arial&amp;#34; ; font-style: normal&quot;&gt;MB116A&lt;/span&gt;&lt;/font&gt;&lt;/div&gt;" style="rounded=1;whiteSpace=wrap;html=1;" parent="1T-89taB87COxcUD3kPp-1" vertex="1">
          <mxGeometry x="320" y="600" width="40" height="160" as="geometry" />
        </mxCell>
        <mxCell id="nQWJmpluUFZDyjNe52Zx-50" value="&lt;div&gt;&lt;span style=&quot;font-size: 13px ; color: #000000 ; font-weight: normal ; text-decoration: none ; font-family: &amp;#34;arial&amp;#34; ; font-style: normal&quot;&gt;&lt;font style=&quot;font-size: 18px&quot;&gt;B16&lt;/font&gt;&lt;br&gt;&lt;/span&gt;&lt;/div&gt;&lt;div&gt;&lt;font size=&quot;1&quot;&gt;&lt;span style=&quot;font-size: 9px ; color: rgb(0 , 0 , 0) ; font-weight: normal ; text-decoration: none ; font-family: &amp;#34;arial&amp;#34; ; font-style: normal&quot;&gt;MB116A&lt;/span&gt;&lt;/font&gt;&lt;/div&gt;" style="rounded=1;whiteSpace=wrap;html=1;" parent="1T-89taB87COxcUD3kPp-1" vertex="1">
          <mxGeometry x="360" y="600" width="40" height="160" as="geometry" />
        </mxCell>
        <mxCell id="nQWJmpluUFZDyjNe52Zx-51" value="&lt;div&gt;&lt;span style=&quot;font-size: 13px ; color: #000000 ; font-weight: normal ; text-decoration: none ; font-family: &amp;#34;arial&amp;#34; ; font-style: normal&quot;&gt;&lt;font style=&quot;font-size: 18px&quot;&gt;B16&lt;/font&gt;&lt;br&gt;&lt;/span&gt;&lt;/div&gt;&lt;div&gt;&lt;font size=&quot;1&quot;&gt;&lt;span style=&quot;font-size: 9px ; color: rgb(0 , 0 , 0) ; font-weight: normal ; text-decoration: none ; font-family: &amp;#34;arial&amp;#34; ; font-style: normal&quot;&gt;MB116A&lt;/span&gt;&lt;/font&gt;&lt;/div&gt;" style="rounded=1;whiteSpace=wrap;html=1;" parent="1T-89taB87COxcUD3kPp-1" vertex="1">
          <mxGeometry x="400" y="600" width="40" height="160" as="geometry" />
        </mxCell>
        <mxCell id="nQWJmpluUFZDyjNe52Zx-52" value="&lt;div&gt;&lt;span style=&quot;font-size: 13px ; color: #000000 ; font-weight: normal ; text-decoration: none ; font-family: &amp;#34;arial&amp;#34; ; font-style: normal&quot;&gt;&lt;font style=&quot;font-size: 18px&quot;&gt;B16&lt;/font&gt;&lt;br&gt;&lt;/span&gt;&lt;/div&gt;&lt;div&gt;&lt;font size=&quot;1&quot;&gt;&lt;span style=&quot;font-size: 9px ; color: rgb(0 , 0 , 0) ; font-weight: normal ; text-decoration: none ; font-family: &amp;#34;arial&amp;#34; ; font-style: normal&quot;&gt;MB116A&lt;/span&gt;&lt;/font&gt;&lt;/div&gt;" style="rounded=1;whiteSpace=wrap;html=1;" parent="1T-89taB87COxcUD3kPp-1" vertex="1">
          <mxGeometry x="440" y="600" width="40" height="160" as="geometry" />
        </mxCell>
        <mxCell id="nQWJmpluUFZDyjNe52Zx-53" value="&lt;div&gt;&lt;span style=&quot;font-size: 13px ; color: #000000 ; font-weight: normal ; text-decoration: none ; font-family: &amp;#34;arial&amp;#34; ; font-style: normal&quot;&gt;&lt;font style=&quot;font-size: 18px&quot;&gt;B16&lt;/font&gt;&lt;br&gt;&lt;/span&gt;&lt;/div&gt;&lt;div&gt;&lt;font size=&quot;1&quot;&gt;&lt;span style=&quot;font-size: 9px ; color: rgb(0 , 0 , 0) ; font-weight: normal ; text-decoration: none ; font-family: &amp;#34;arial&amp;#34; ; font-style: normal&quot;&gt;MB116A&lt;/span&gt;&lt;/font&gt;&lt;/div&gt;" style="rounded=1;whiteSpace=wrap;html=1;" parent="1T-89taB87COxcUD3kPp-1" vertex="1">
          <mxGeometry x="480" y="600" width="40" height="160" as="geometry" />
        </mxCell>
        <mxCell id="nQWJmpluUFZDyjNe52Zx-54" value="&lt;div&gt;&lt;span style=&quot;font-size: 13px ; color: #000000 ; font-weight: normal ; text-decoration: none ; font-family: &amp;#34;arial&amp;#34; ; font-style: normal&quot;&gt;&lt;font style=&quot;font-size: 18px&quot;&gt;B16&lt;/font&gt;&lt;br&gt;&lt;/span&gt;&lt;/div&gt;&lt;div&gt;&lt;font size=&quot;1&quot;&gt;&lt;span style=&quot;font-size: 9px ; color: rgb(0 , 0 , 0) ; font-weight: normal ; text-decoration: none ; font-family: &amp;#34;arial&amp;#34; ; font-style: normal&quot;&gt;MB116A&lt;/span&gt;&lt;/font&gt;&lt;/div&gt;" style="rounded=1;whiteSpace=wrap;html=1;" parent="1T-89taB87COxcUD3kPp-1" vertex="1">
          <mxGeometry x="520" y="600" width="40" height="160" as="geometry" />
        </mxCell>
        <mxCell id="nQWJmpluUFZDyjNe52Zx-55" value="&lt;div&gt;&lt;span style=&quot;font-size: 13px ; color: #000000 ; font-weight: normal ; text-decoration: none ; font-family: &amp;#34;arial&amp;#34; ; font-style: normal&quot;&gt;&lt;font style=&quot;font-size: 18px&quot;&gt;B16&lt;/font&gt;&lt;br&gt;&lt;/span&gt;&lt;/div&gt;&lt;div&gt;&lt;font size=&quot;1&quot;&gt;&lt;span style=&quot;font-size: 9px ; color: rgb(0 , 0 , 0) ; font-weight: normal ; text-decoration: none ; font-family: &amp;#34;arial&amp;#34; ; font-style: normal&quot;&gt;MB116A&lt;/span&gt;&lt;/font&gt;&lt;/div&gt;" style="rounded=1;whiteSpace=wrap;html=1;" parent="1T-89taB87COxcUD3kPp-1" vertex="1">
          <mxGeometry x="560" y="600" width="40" height="160" as="geometry" />
        </mxCell>
        <mxCell id="nQWJmpluUFZDyjNe52Zx-56" value="&lt;div&gt;&lt;span style=&quot;font-size: 13px ; color: #000000 ; font-weight: normal ; text-decoration: none ; font-family: &amp;#34;arial&amp;#34; ; font-style: normal&quot;&gt;&lt;font style=&quot;font-size: 18px&quot;&gt;B16&lt;/font&gt;&lt;br&gt;&lt;/span&gt;&lt;/div&gt;&lt;div&gt;&lt;font size=&quot;1&quot;&gt;&lt;span style=&quot;font-size: 9px ; color: rgb(0 , 0 , 0) ; font-weight: normal ; text-decoration: none ; font-family: &amp;#34;arial&amp;#34; ; font-style: normal&quot;&gt;MB116A&lt;/span&gt;&lt;/font&gt;&lt;/div&gt;" style="rounded=1;whiteSpace=wrap;html=1;" parent="1T-89taB87COxcUD3kPp-1" vertex="1">
          <mxGeometry x="600" y="600" width="40" height="160" as="geometry" />
        </mxCell>
        <mxCell id="nQWJmpluUFZDyjNe52Zx-57" value="&lt;div&gt;&lt;span style=&quot;font-size: 13px ; color: #000000 ; font-weight: normal ; text-decoration: none ; font-family: &amp;#34;arial&amp;#34; ; font-style: normal&quot;&gt;&lt;font style=&quot;font-size: 18px&quot;&gt;B16&lt;/font&gt;&lt;br&gt;&lt;/span&gt;&lt;/div&gt;&lt;div&gt;&lt;font size=&quot;1&quot;&gt;&lt;span style=&quot;font-size: 9px ; color: rgb(0 , 0 , 0) ; font-weight: normal ; text-decoration: none ; font-family: &amp;#34;arial&amp;#34; ; font-style: normal&quot;&gt;MB116A&lt;/span&gt;&lt;/font&gt;&lt;/div&gt;" style="rounded=1;whiteSpace=wrap;html=1;" parent="1T-89taB87COxcUD3kPp-1" vertex="1">
          <mxGeometry x="640" y="600" width="40" height="160" as="geometry" />
        </mxCell>
        <mxCell id="nQWJmpluUFZDyjNe52Zx-58" value="&lt;div&gt;&lt;span style=&quot;font-size: 13px ; color: #000000 ; font-weight: normal ; text-decoration: none ; font-family: &amp;#34;arial&amp;#34; ; font-style: normal&quot;&gt;&lt;font style=&quot;font-size: 18px&quot;&gt;B16&lt;/font&gt;&lt;br&gt;&lt;/span&gt;&lt;/div&gt;&lt;div&gt;&lt;font size=&quot;1&quot;&gt;&lt;span style=&quot;font-size: 9px ; color: rgb(0 , 0 , 0) ; font-weight: normal ; text-decoration: none ; font-family: &amp;#34;arial&amp;#34; ; font-style: normal&quot;&gt;MB116A&lt;/span&gt;&lt;/font&gt;&lt;/div&gt;" style="rounded=1;whiteSpace=wrap;html=1;" parent="1T-89taB87COxcUD3kPp-1" vertex="1">
          <mxGeometry x="680" y="600" width="40" height="160" as="geometry" />
        </mxCell>
        <mxCell id="nQWJmpluUFZDyjNe52Zx-59" value="&lt;div&gt;&lt;span style=&quot;font-size: 13px ; color: #000000 ; font-weight: normal ; text-decoration: none ; font-family: &amp;#34;arial&amp;#34; ; font-style: normal&quot;&gt;&lt;font style=&quot;font-size: 18px&quot;&gt;B16&lt;/font&gt;&lt;br&gt;&lt;/span&gt;&lt;/div&gt;&lt;div&gt;&lt;font size=&quot;1&quot;&gt;&lt;span style=&quot;font-size: 9px ; color: rgb(0 , 0 , 0) ; font-weight: normal ; text-decoration: none ; font-family: &amp;#34;arial&amp;#34; ; font-style: normal&quot;&gt;MB116A&lt;/span&gt;&lt;/font&gt;&lt;/div&gt;" style="rounded=1;whiteSpace=wrap;html=1;" parent="1T-89taB87COxcUD3kPp-1" vertex="1">
          <mxGeometry x="720" y="600" width="40" height="160" as="geometry" />
        </mxCell>
        <mxCell id="nQWJmpluUFZDyjNe52Zx-60" value="&lt;div&gt;&lt;span style=&quot;font-size: 13px ; color: #000000 ; font-weight: normal ; text-decoration: none ; font-family: &amp;#34;arial&amp;#34; ; font-style: normal&quot;&gt;&lt;font style=&quot;font-size: 18px&quot;&gt;B16&lt;/font&gt;&lt;br&gt;&lt;/span&gt;&lt;/div&gt;&lt;div&gt;&lt;font size=&quot;1&quot;&gt;&lt;span style=&quot;font-size: 9px ; color: rgb(0 , 0 , 0) ; font-weight: normal ; text-decoration: none ; font-family: &amp;#34;arial&amp;#34; ; font-style: normal&quot;&gt;MB116A&lt;/span&gt;&lt;/font&gt;&lt;/div&gt;" style="rounded=1;whiteSpace=wrap;html=1;" parent="1T-89taB87COxcUD3kPp-1" vertex="1">
          <mxGeometry x="760" y="600" width="40" height="160" as="geometry" />
        </mxCell>
        <mxCell id="nQWJmpluUFZDyjNe52Zx-62" value="&lt;div&gt;&lt;span style=&quot;font-size: 13px ; color: #000000 ; font-weight: normal ; text-decoration: none ; font-family: &amp;#34;arial&amp;#34; ; font-style: normal&quot;&gt;&lt;font style=&quot;font-size: 18px&quot;&gt;B16&lt;/font&gt;&lt;br&gt;&lt;/span&gt;&lt;/div&gt;&lt;div&gt;&lt;font size=&quot;1&quot;&gt;&lt;span style=&quot;font-size: 9px ; color: rgb(0 , 0 , 0) ; font-weight: normal ; text-decoration: none ; font-family: &amp;#34;arial&amp;#34; ; font-style: normal&quot;&gt;MB116A&lt;/span&gt;&lt;/font&gt;&lt;/div&gt;" style="rounded=1;whiteSpace=wrap;html=1;" parent="1T-89taB87COxcUD3kPp-1" vertex="1">
          <mxGeometry x="360" y="320" width="40" height="160" as="geometry" />
        </mxCell>
        <mxCell id="nQWJmpluUFZDyjNe52Zx-63" value="&lt;div&gt;&lt;span style=&quot;font-size: 13px ; color: #000000 ; font-weight: normal ; text-decoration: none ; font-family: &amp;#34;arial&amp;#34; ; font-style: normal&quot;&gt;&lt;font style=&quot;font-size: 18px&quot;&gt;B16&lt;/font&gt;&lt;br&gt;&lt;/span&gt;&lt;/div&gt;&lt;div&gt;&lt;font size=&quot;1&quot;&gt;&lt;span style=&quot;font-size: 9px ; color: rgb(0 , 0 , 0) ; font-weight: normal ; text-decoration: none ; font-family: &amp;#34;arial&amp;#34; ; font-style: normal&quot;&gt;MB116A&lt;/span&gt;&lt;/font&gt;&lt;/div&gt;" style="rounded=1;whiteSpace=wrap;html=1;" parent="1T-89taB87COxcUD3kPp-1" vertex="1">
          <mxGeometry x="400" y="320" width="40" height="160" as="geometry" />
        </mxCell>
        <mxCell id="nQWJmpluUFZDyjNe52Zx-64" value="" style="curved=1;endArrow=none;html=1;strokeWidth=3;exitX=1;exitY=0.25;exitDx=0;exitDy=0;fillColor=#dae8fc;strokeColor=#6c8ebf;entryX=0.5;entryY=1;entryDx=0;entryDy=0;startArrow=classic;startFill=1;endFill=0;" parent="1T-89taB87COxcUD3kPp-1" target="nQWJmpluUFZDyjNe52Zx-100" edge="1">
          <mxGeometry width="50" height="50" relative="1" as="geometry">
            <mxPoint x="120" y="690" as="sourcePoint" />
            <mxPoint x="160" y="690" as="targetPoint" />
            <Array as="points" />
          </mxGeometry>
        </mxCell>
        <mxCell id="nQWJmpluUFZDyjNe52Zx-65" value="" style="curved=1;endArrow=none;html=1;strokeWidth=3;exitX=1;exitY=0.75;exitDx=0;exitDy=0;fillColor=#f8cecc;strokeColor=#b85450;entryX=0.5;entryY=0;entryDx=0;entryDy=0;startArrow=classic;startFill=1;endFill=0;" parent="1T-89taB87COxcUD3kPp-1" target="nQWJmpluUFZDyjNe52Zx-59" edge="1">
          <mxGeometry width="50" height="50" relative="1" as="geometry">
            <mxPoint x="120" y="110" as="sourcePoint" />
            <mxPoint x="160" y="110" as="targetPoint" />
            <Array as="points">
              <mxPoint x="150" y="110" />
              <mxPoint x="210" y="230" />
              <mxPoint x="290" y="490" />
              <mxPoint x="380" y="520" />
              <mxPoint x="500" y="530" />
              <mxPoint x="730" y="550" />
            </Array>
          </mxGeometry>
        </mxCell>
        <mxCell id="nQWJmpluUFZDyjNe52Zx-66" value="" style="curved=1;endArrow=none;html=1;strokeWidth=3;exitX=1;exitY=0.25;exitDx=0;exitDy=0;fillColor=#dae8fc;strokeColor=#6c8ebf;entryX=0.75;entryY=0;entryDx=0;entryDy=0;startArrow=classic;startFill=1;endFill=0;" parent="1T-89taB87COxcUD3kPp-1" target="tsX-wB04UhycCPOWPUZV-2" edge="1">
          <mxGeometry width="50" height="50" relative="1" as="geometry">
            <mxPoint x="120" y="90" as="sourcePoint" />
            <mxPoint x="160" y="90" as="targetPoint" />
            <Array as="points">
              <mxPoint x="260" y="40" />
              <mxPoint x="500" y="40" />
            </Array>
          </mxGeometry>
        </mxCell>
        <mxCell id="nQWJmpluUFZDyjNe52Zx-67" value="" style="curved=1;endArrow=none;html=1;strokeWidth=3;exitX=1;exitY=0.75;exitDx=0;exitDy=0;fillColor=#f8cecc;strokeColor=#b85450;entryX=0.5;entryY=0;entryDx=0;entryDy=0;startArrow=classic;startFill=1;endFill=0;" parent="1T-89taB87COxcUD3kPp-1" target="nQWJmpluUFZDyjNe52Zx-58" edge="1">
          <mxGeometry width="50" height="50" relative="1" as="geometry">
            <mxPoint x="120" y="149.5" as="sourcePoint" />
            <mxPoint x="160" y="149.5" as="targetPoint" />
            <Array as="points">
              <mxPoint x="170" y="140" />
              <mxPoint x="270" y="490" />
              <mxPoint x="370" y="530" />
              <mxPoint x="640" y="550" />
              <mxPoint x="690" y="570" />
            </Array>
          </mxGeometry>
        </mxCell>
        <mxCell id="nQWJmpluUFZDyjNe52Zx-68" value="" style="curved=1;endArrow=none;html=1;strokeWidth=3;exitX=1;exitY=0.25;exitDx=0;exitDy=0;fillColor=#dae8fc;strokeColor=#6c8ebf;entryX=0.5;entryY=0;entryDx=0;entryDy=0;startArrow=classic;startFill=1;endFill=0;" parent="1T-89taB87COxcUD3kPp-1" target="tsX-wB04UhycCPOWPUZV-2" edge="1">
          <mxGeometry width="50" height="50" relative="1" as="geometry">
            <mxPoint x="120" y="130" as="sourcePoint" />
            <mxPoint x="160" y="130" as="targetPoint" />
            <Array as="points">
              <mxPoint x="360" y="10" />
            </Array>
          </mxGeometry>
        </mxCell>
        <mxCell id="nQWJmpluUFZDyjNe52Zx-69" value="" style="curved=1;endArrow=none;html=1;strokeWidth=3;exitX=1;exitY=0.75;exitDx=0;exitDy=0;fillColor=#f8cecc;strokeColor=#b85450;entryX=0.5;entryY=0;entryDx=0;entryDy=0;startArrow=classic;startFill=1;endFill=0;" parent="1T-89taB87COxcUD3kPp-1" target="nQWJmpluUFZDyjNe52Zx-50" edge="1">
          <mxGeometry width="50" height="50" relative="1" as="geometry">
            <mxPoint x="120" y="190" as="sourcePoint" />
            <mxPoint x="160" y="190" as="targetPoint" />
            <Array as="points" />
          </mxGeometry>
        </mxCell>
        <mxCell id="nQWJmpluUFZDyjNe52Zx-70" value="" style="curved=1;endArrow=none;html=1;strokeWidth=3;exitX=1;exitY=0.25;exitDx=0;exitDy=0;fillColor=#dae8fc;strokeColor=#6c8ebf;entryX=0.25;entryY=1;entryDx=0;entryDy=0;startArrow=classic;startFill=1;endFill=0;" parent="1T-89taB87COxcUD3kPp-1" target="tsX-wB04UhycCPOWPUZV-2" edge="1">
          <mxGeometry width="50" height="50" relative="1" as="geometry">
            <mxPoint x="120" y="290" as="sourcePoint" />
            <mxPoint x="160" y="290" as="targetPoint" />
            <Array as="points">
              <mxPoint x="410" y="280" />
            </Array>
          </mxGeometry>
        </mxCell>
        <mxCell id="nQWJmpluUFZDyjNe52Zx-71" value="" style="curved=1;endArrow=none;html=1;strokeWidth=3;exitX=1;exitY=0.75;exitDx=0;exitDy=0;fillColor=#f8cecc;strokeColor=#b85450;entryX=0.5;entryY=0;entryDx=0;entryDy=0;startArrow=classic;startFill=1;endFill=0;" parent="1T-89taB87COxcUD3kPp-1" target="nQWJmpluUFZDyjNe52Zx-57" edge="1">
          <mxGeometry width="50" height="50" relative="1" as="geometry">
            <mxPoint x="120" y="230" as="sourcePoint" />
            <mxPoint x="160" y="230" as="targetPoint" />
            <Array as="points">
              <mxPoint x="180" y="210" />
              <mxPoint x="250" y="520" />
              <mxPoint x="450" y="550" />
              <mxPoint x="650" y="560" />
            </Array>
          </mxGeometry>
        </mxCell>
        <mxCell id="nQWJmpluUFZDyjNe52Zx-72" value="" style="curved=1;endArrow=none;html=1;strokeWidth=3;exitX=1;exitY=0.25;exitDx=0;exitDy=0;fillColor=#dae8fc;strokeColor=#6c8ebf;entryX=0.25;entryY=1;entryDx=0;entryDy=0;startArrow=classic;startFill=1;endFill=0;" parent="1T-89taB87COxcUD3kPp-1" target="nQWJmpluUFZDyjNe52Zx-98" edge="1">
          <mxGeometry width="50" height="50" relative="1" as="geometry">
            <mxPoint x="120" y="170" as="sourcePoint" />
            <mxPoint x="160" y="170" as="targetPoint" />
            <Array as="points">
              <mxPoint x="200" y="230" />
            </Array>
          </mxGeometry>
        </mxCell>
        <mxCell id="nQWJmpluUFZDyjNe52Zx-73" value="" style="curved=1;endArrow=none;html=1;strokeWidth=3;exitX=1;exitY=0.75;exitDx=0;exitDy=0;fillColor=#f8cecc;strokeColor=#b85450;entryX=0.5;entryY=0;entryDx=0;entryDy=0;startArrow=classic;startFill=1;endFill=0;" parent="1T-89taB87COxcUD3kPp-1" target="nQWJmpluUFZDyjNe52Zx-61" edge="1">
          <mxGeometry width="50" height="50" relative="1" as="geometry">
            <mxPoint x="120" y="310" as="sourcePoint" />
            <mxPoint x="160" y="310" as="targetPoint" />
            <Array as="points">
              <mxPoint x="160" y="310" />
              <mxPoint x="250" y="280" />
              <mxPoint x="340" y="300" />
            </Array>
          </mxGeometry>
        </mxCell>
        <mxCell id="nQWJmpluUFZDyjNe52Zx-74" value="" style="curved=1;endArrow=none;html=1;strokeWidth=3;exitX=1;exitY=0.25;exitDx=0;exitDy=0;fillColor=#dae8fc;strokeColor=#6c8ebf;entryX=0.25;entryY=0;entryDx=0;entryDy=0;endFill=0;startArrow=classic;startFill=1;" parent="1T-89taB87COxcUD3kPp-1" target="tsX-wB04UhycCPOWPUZV-2" edge="1">
          <mxGeometry width="50" height="50" relative="1" as="geometry">
            <mxPoint x="120" y="210" as="sourcePoint" />
            <mxPoint x="380" y="90" as="targetPoint" />
            <Array as="points">
              <mxPoint x="250" y="20" />
            </Array>
          </mxGeometry>
        </mxCell>
        <mxCell id="nQWJmpluUFZDyjNe52Zx-76" value="" style="curved=1;endArrow=classic;html=1;strokeWidth=3;fillColor=#dae8fc;strokeColor=#6c8ebf;entryX=1;entryY=0.25;entryDx=0;entryDy=0;exitX=0.25;exitY=1;exitDx=0;exitDy=0;" parent="1T-89taB87COxcUD3kPp-1" source="nQWJmpluUFZDyjNe52Zx-97" target="tsX-wB04UhycCPOWPUZV-23" edge="1">
          <mxGeometry width="50" height="50" relative="1" as="geometry">
            <mxPoint x="450" y="580" as="sourcePoint" />
            <mxPoint x="160" y="370" as="targetPoint" />
            <Array as="points">
              <mxPoint x="260" y="320" />
            </Array>
          </mxGeometry>
        </mxCell>
        <mxCell id="nQWJmpluUFZDyjNe52Zx-77" value="" style="curved=1;endArrow=classic;html=1;strokeWidth=3;exitX=0.25;exitY=0;exitDx=0;exitDy=0;fillColor=#f8cecc;strokeColor=#b85450;entryX=0.5;entryY=1;entryDx=0;entryDy=0;" parent="1T-89taB87COxcUD3kPp-1" source="nQWJmpluUFZDyjNe52Zx-3" target="nQWJmpluUFZDyjNe52Zx-63" edge="1">
          <mxGeometry width="50" height="50" relative="1" as="geometry">
            <mxPoint x="340" y="827" as="sourcePoint" />
            <mxPoint x="170" y="440" as="targetPoint" />
            <Array as="points">
              <mxPoint x="400" y="690" />
            </Array>
          </mxGeometry>
        </mxCell>
        <mxCell id="nQWJmpluUFZDyjNe52Zx-78" value="" style="curved=1;endArrow=classic;html=1;strokeWidth=3;fillColor=#dae8fc;strokeColor=#6c8ebf;entryX=1;entryY=0.25;entryDx=0;entryDy=0;exitX=0.75;exitY=0;exitDx=0;exitDy=0;" parent="1T-89taB87COxcUD3kPp-1" source="gXGEx_JHsCBYrGABIQa0-9" target="tsX-wB04UhycCPOWPUZV-22" edge="1">
          <mxGeometry width="50" height="50" relative="1" as="geometry">
            <mxPoint x="400" y="270" as="sourcePoint" />
            <mxPoint x="490" y="820" as="targetPoint" />
            <Array as="points">
              <mxPoint x="380" y="790" />
              <mxPoint x="250" y="480" />
              <mxPoint x="160" y="340" />
            </Array>
          </mxGeometry>
        </mxCell>
        <mxCell id="nQWJmpluUFZDyjNe52Zx-79" value="" style="curved=1;endArrow=none;html=1;strokeWidth=3;exitX=1;exitY=0.75;exitDx=0;exitDy=0;fillColor=#f8cecc;strokeColor=#b85450;entryX=0.25;entryY=0;entryDx=0;entryDy=0;startArrow=classic;startFill=1;endFill=0;" parent="1T-89taB87COxcUD3kPp-1" target="nQWJmpluUFZDyjNe52Zx-136" edge="1">
          <mxGeometry width="50" height="50" relative="1" as="geometry">
            <mxPoint x="120" y="430" as="sourcePoint" />
            <mxPoint x="160" y="430" as="targetPoint" />
            <Array as="points" />
          </mxGeometry>
        </mxCell>
        <mxCell id="nQWJmpluUFZDyjNe52Zx-80" value="" style="curved=1;endArrow=none;html=1;strokeWidth=3;exitX=1;exitY=0.25;exitDx=0;exitDy=0;fillColor=#dae8fc;strokeColor=#6c8ebf;entryX=0.5;entryY=1;entryDx=0;entryDy=0;startArrow=classic;startFill=1;endFill=0;" parent="1T-89taB87COxcUD3kPp-1" target="nQWJmpluUFZDyjNe52Zx-100" edge="1">
          <mxGeometry width="50" height="50" relative="1" as="geometry">
            <mxPoint x="120" y="650" as="sourcePoint" />
            <mxPoint x="160" y="650" as="targetPoint" />
            <Array as="points" />
          </mxGeometry>
        </mxCell>
        <mxCell id="nQWJmpluUFZDyjNe52Zx-81" value="" style="curved=1;endArrow=none;html=1;strokeWidth=3;exitX=1;exitY=0.75;exitDx=0;exitDy=0;fillColor=#f8cecc;strokeColor=#b85450;entryX=0.75;entryY=0;entryDx=0;entryDy=0;startArrow=classic;startFill=1;endFill=0;" parent="1T-89taB87COxcUD3kPp-1" target="nQWJmpluUFZDyjNe52Zx-136" edge="1">
          <mxGeometry width="50" height="50" relative="1" as="geometry">
            <mxPoint x="120" y="470" as="sourcePoint" />
            <mxPoint x="500" y="600" as="targetPoint" />
            <Array as="points" />
          </mxGeometry>
        </mxCell>
        <mxCell id="nQWJmpluUFZDyjNe52Zx-82" value="" style="curved=1;endArrow=none;html=1;strokeWidth=3;exitX=1;exitY=0.25;exitDx=0;exitDy=0;fillColor=#dae8fc;strokeColor=#6c8ebf;entryX=0.5;entryY=1;entryDx=0;entryDy=0;startArrow=classic;startFill=1;endFill=0;" parent="1T-89taB87COxcUD3kPp-1" target="nQWJmpluUFZDyjNe52Zx-100" edge="1">
          <mxGeometry width="50" height="50" relative="1" as="geometry">
            <mxPoint x="120" y="410" as="sourcePoint" />
            <mxPoint x="160" y="410" as="targetPoint" />
            <Array as="points" />
          </mxGeometry>
        </mxCell>
        <mxCell id="nQWJmpluUFZDyjNe52Zx-83" value="" style="curved=1;endArrow=none;html=1;strokeWidth=3;exitX=1;exitY=0.75;exitDx=0;exitDy=0;fillColor=#f8cecc;strokeColor=#b85450;entryX=0.5;entryY=0;entryDx=0;entryDy=0;startArrow=classic;startFill=1;endFill=0;" parent="1T-89taB87COxcUD3kPp-1" target="nQWJmpluUFZDyjNe52Zx-54" edge="1">
          <mxGeometry width="50" height="50" relative="1" as="geometry">
            <mxPoint x="120" y="510" as="sourcePoint" />
            <mxPoint x="160" y="510" as="targetPoint" />
            <Array as="points" />
          </mxGeometry>
        </mxCell>
        <mxCell id="nQWJmpluUFZDyjNe52Zx-84" value="" style="curved=1;endArrow=none;html=1;strokeWidth=3;exitX=1;exitY=0.25;exitDx=0;exitDy=0;fillColor=#dae8fc;strokeColor=#6c8ebf;entryX=0.5;entryY=1;entryDx=0;entryDy=0;startArrow=classic;startFill=1;endFill=0;" parent="1T-89taB87COxcUD3kPp-1" target="nQWJmpluUFZDyjNe52Zx-100" edge="1">
          <mxGeometry width="50" height="50" relative="1" as="geometry">
            <mxPoint x="120" y="450" as="sourcePoint" />
            <mxPoint x="160" y="450" as="targetPoint" />
            <Array as="points" />
          </mxGeometry>
        </mxCell>
        <mxCell id="nQWJmpluUFZDyjNe52Zx-85" value="" style="curved=1;endArrow=none;html=1;strokeWidth=3;exitX=1;exitY=0.75;exitDx=0;exitDy=0;fillColor=#f8cecc;strokeColor=#b85450;entryX=0.5;entryY=0;entryDx=0;entryDy=0;startArrow=classic;startFill=1;endFill=0;" parent="1T-89taB87COxcUD3kPp-1" target="nQWJmpluUFZDyjNe52Zx-55" edge="1">
          <mxGeometry width="50" height="50" relative="1" as="geometry">
            <mxPoint x="120" y="550" as="sourcePoint" />
            <mxPoint x="160" y="550" as="targetPoint" />
            <Array as="points" />
          </mxGeometry>
        </mxCell>
        <mxCell id="nQWJmpluUFZDyjNe52Zx-86" value="" style="curved=1;endArrow=none;html=1;strokeWidth=3;exitX=1;exitY=0.25;exitDx=0;exitDy=0;fillColor=#dae8fc;strokeColor=#6c8ebf;entryX=0.5;entryY=1;entryDx=0;entryDy=0;startArrow=classic;startFill=1;endFill=0;" parent="1T-89taB87COxcUD3kPp-1" target="nQWJmpluUFZDyjNe52Zx-100" edge="1">
          <mxGeometry width="50" height="50" relative="1" as="geometry">
            <mxPoint x="120" y="490" as="sourcePoint" />
            <mxPoint x="160" y="490" as="targetPoint" />
            <Array as="points" />
          </mxGeometry>
        </mxCell>
        <mxCell id="nQWJmpluUFZDyjNe52Zx-87" value="" style="curved=1;endArrow=none;html=1;strokeWidth=3;exitX=1;exitY=0.75;exitDx=0;exitDy=0;fillColor=#f8cecc;strokeColor=#b85450;entryX=0.5;entryY=0;entryDx=0;entryDy=0;startArrow=classic;startFill=1;endFill=0;" parent="1T-89taB87COxcUD3kPp-1" target="nQWJmpluUFZDyjNe52Zx-52" edge="1">
          <mxGeometry width="50" height="50" relative="1" as="geometry">
            <mxPoint x="120" y="590" as="sourcePoint" />
            <mxPoint x="160" y="590" as="targetPoint" />
            <Array as="points" />
          </mxGeometry>
        </mxCell>
        <mxCell id="nQWJmpluUFZDyjNe52Zx-88" value="" style="curved=1;endArrow=none;html=1;strokeWidth=3;exitX=1;exitY=0.25;exitDx=0;exitDy=0;fillColor=#dae8fc;strokeColor=#6c8ebf;entryX=0.5;entryY=1;entryDx=0;entryDy=0;startArrow=classic;startFill=1;endFill=0;" parent="1T-89taB87COxcUD3kPp-1" target="nQWJmpluUFZDyjNe52Zx-100" edge="1">
          <mxGeometry width="50" height="50" relative="1" as="geometry">
            <mxPoint x="120" y="610" as="sourcePoint" />
            <mxPoint x="160" y="610" as="targetPoint" />
            <Array as="points" />
          </mxGeometry>
        </mxCell>
        <mxCell id="nQWJmpluUFZDyjNe52Zx-89" value="" style="curved=1;endArrow=none;html=1;strokeWidth=3;exitX=1;exitY=0.75;exitDx=0;exitDy=0;fillColor=#f8cecc;strokeColor=#b85450;entryX=0.5;entryY=0;entryDx=0;entryDy=0;startArrow=classic;startFill=1;endFill=0;" parent="1T-89taB87COxcUD3kPp-1" target="nQWJmpluUFZDyjNe52Zx-51" edge="1">
          <mxGeometry width="50" height="50" relative="1" as="geometry">
            <mxPoint x="120" y="710" as="sourcePoint" />
            <mxPoint x="160" y="710" as="targetPoint" />
            <Array as="points" />
          </mxGeometry>
        </mxCell>
        <mxCell id="nQWJmpluUFZDyjNe52Zx-90" value="" style="curved=1;endArrow=none;html=1;strokeWidth=3;exitX=1;exitY=0.25;exitDx=0;exitDy=0;fillColor=#dae8fc;strokeColor=#6c8ebf;entryX=0.5;entryY=1;entryDx=0;entryDy=0;startArrow=classic;startFill=1;endFill=0;" parent="1T-89taB87COxcUD3kPp-1" target="nQWJmpluUFZDyjNe52Zx-100" edge="1">
          <mxGeometry width="50" height="50" relative="1" as="geometry">
            <mxPoint x="120" y="530" as="sourcePoint" />
            <mxPoint x="160" y="530" as="targetPoint" />
            <Array as="points" />
          </mxGeometry>
        </mxCell>
        <mxCell id="nQWJmpluUFZDyjNe52Zx-91" value="" style="curved=1;endArrow=none;html=1;strokeWidth=3;exitX=1;exitY=0.75;exitDx=0;exitDy=0;fillColor=#f8cecc;strokeColor=#b85450;startArrow=classic;startFill=1;endFill=0;entryX=0.25;entryY=0;entryDx=0;entryDy=0;" parent="1T-89taB87COxcUD3kPp-1" target="nQWJmpluUFZDyjNe52Zx-134" edge="1">
          <mxGeometry width="50" height="50" relative="1" as="geometry">
            <mxPoint x="120" y="630" as="sourcePoint" />
            <mxPoint x="610" y="600" as="targetPoint" />
            <Array as="points" />
          </mxGeometry>
        </mxCell>
        <mxCell id="nQWJmpluUFZDyjNe52Zx-92" value="" style="curved=1;endArrow=none;html=1;strokeWidth=3;exitX=1;exitY=0.25;exitDx=0;exitDy=0;fillColor=#dae8fc;strokeColor=#6c8ebf;entryX=0.5;entryY=1;entryDx=0;entryDy=0;startArrow=classic;startFill=1;endFill=0;" parent="1T-89taB87COxcUD3kPp-1" target="nQWJmpluUFZDyjNe52Zx-100" edge="1">
          <mxGeometry width="50" height="50" relative="1" as="geometry">
            <mxPoint x="120" y="570" as="sourcePoint" />
            <mxPoint x="160" y="570" as="targetPoint" />
            <Array as="points" />
          </mxGeometry>
        </mxCell>
        <mxCell id="nQWJmpluUFZDyjNe52Zx-93" value="" style="curved=1;endArrow=none;html=1;strokeWidth=3;exitX=1;exitY=0.75;exitDx=0;exitDy=0;fillColor=#f8cecc;strokeColor=#b85450;entryX=0.75;entryY=0;entryDx=0;entryDy=0;startArrow=classic;startFill=1;endFill=0;" parent="1T-89taB87COxcUD3kPp-1" target="nQWJmpluUFZDyjNe52Zx-134" edge="1">
          <mxGeometry width="50" height="50" relative="1" as="geometry">
            <mxPoint x="120" y="670" as="sourcePoint" />
            <mxPoint x="160" y="670" as="targetPoint" />
            <Array as="points" />
          </mxGeometry>
        </mxCell>
        <mxCell id="nQWJmpluUFZDyjNe52Zx-94" value="" style="curved=1;endArrow=none;html=1;strokeWidth=3;exitX=1;exitY=0.25;exitDx=0;exitDy=0;fillColor=#dae8fc;strokeColor=#6c8ebf;entryX=0.75;entryY=0;entryDx=0;entryDy=0;startArrow=classic;startFill=1;endFill=0;" parent="1T-89taB87COxcUD3kPp-1" target="tsX-wB04UhycCPOWPUZV-2" edge="1">
          <mxGeometry width="50" height="50" relative="1" as="geometry">
            <mxPoint x="120" y="50" as="sourcePoint" />
            <mxPoint x="160" y="50" as="targetPoint" />
            <Array as="points">
              <mxPoint x="230" y="10" />
              <mxPoint x="500" y="10" />
            </Array>
          </mxGeometry>
        </mxCell>
        <mxCell id="nQWJmpluUFZDyjNe52Zx-95" value="" style="curved=1;endArrow=none;html=1;strokeWidth=3;exitX=1;exitY=0.75;exitDx=0;exitDy=0;fillColor=#f8cecc;strokeColor=#b85450;entryX=0.5;entryY=0;entryDx=0;entryDy=0;startArrow=classic;startFill=1;endFill=0;" parent="1T-89taB87COxcUD3kPp-1" target="nQWJmpluUFZDyjNe52Zx-60" edge="1">
          <mxGeometry width="50" height="50" relative="1" as="geometry">
            <mxPoint x="120" y="70" as="sourcePoint" />
            <mxPoint x="160" y="70" as="targetPoint" />
            <Array as="points">
              <mxPoint x="170" y="80" />
              <mxPoint x="250" y="340" />
              <mxPoint x="320" y="510" />
              <mxPoint x="780" y="550" />
            </Array>
          </mxGeometry>
        </mxCell>
        <mxCell id="nQWJmpluUFZDyjNe52Zx-97" value="&lt;div style=&quot;font-size: 15px&quot;&gt;&lt;font style=&quot;font-size: 15px&quot;&gt;Розетки N&lt;/font&gt;&lt;/div&gt;&lt;div style=&quot;font-size: 13px&quot;&gt;&lt;font style=&quot;font-size: 13px&quot;&gt;KN06N&lt;br&gt;&lt;/font&gt;&lt;/div&gt;" style="rounded=0;whiteSpace=wrap;html=1;fillColor=#dae8fc;strokeColor=#6c8ebf;" parent="1T-89taB87COxcUD3kPp-1" vertex="1">
          <mxGeometry x="520" y="100" width="80" height="100" as="geometry" />
        </mxCell>
        <mxCell id="nQWJmpluUFZDyjNe52Zx-98" value="&lt;div style=&quot;font-size: 15px&quot;&gt;&lt;font style=&quot;font-size: 15px&quot;&gt;Розетки N&lt;/font&gt;&lt;/div&gt;&lt;div style=&quot;font-size: 13px&quot;&gt;&lt;font style=&quot;font-size: 13px&quot;&gt;KN06N&lt;br&gt;&lt;/font&gt;&lt;/div&gt;" style="rounded=0;whiteSpace=wrap;html=1;fillColor=#dae8fc;strokeColor=#6c8ebf;" parent="1T-89taB87COxcUD3kPp-1" vertex="1">
          <mxGeometry x="440" y="100" width="80" height="100" as="geometry" />
        </mxCell>
        <mxCell id="nQWJmpluUFZDyjNe52Zx-100" value="&lt;div style=&quot;font-size: 15px&quot;&gt;&lt;font style=&quot;font-size: 15px&quot;&gt;Розетки N&lt;/font&gt;&lt;/div&gt;&lt;div style=&quot;font-size: 13px&quot;&gt;&lt;font style=&quot;font-size: 13px&quot;&gt;KN10N&lt;br&gt;&lt;/font&gt;&lt;/div&gt;" style="rounded=0;whiteSpace=wrap;html=1;fillColor=#dae8fc;strokeColor=#6c8ebf;" parent="1T-89taB87COxcUD3kPp-1" vertex="1">
          <mxGeometry x="320" y="100" width="120" height="100" as="geometry" />
        </mxCell>
        <mxCell id="nQWJmpluUFZDyjNe52Zx-101" value="" style="endArrow=none;html=1;strokeWidth=10;fillColor=#f8cecc;strokeColor=#b85450;" parent="1T-89taB87COxcUD3kPp-1" edge="1">
          <mxGeometry width="50" height="50" relative="1" as="geometry">
            <mxPoint x="650" y="800" as="sourcePoint" />
            <mxPoint x="790" y="800" as="targetPoint" />
          </mxGeometry>
        </mxCell>
        <mxCell id="nQWJmpluUFZDyjNe52Zx-102" value="" style="endArrow=classic;html=1;strokeWidth=3;entryX=0.5;entryY=1;entryDx=0;entryDy=0;fillColor=#f8cecc;strokeColor=#b85450;" parent="1T-89taB87COxcUD3kPp-1" edge="1">
          <mxGeometry width="50" height="50" relative="1" as="geometry">
            <mxPoint x="780.25" y="800" as="sourcePoint" />
            <mxPoint x="779.7500000000002" y="760" as="targetPoint" />
          </mxGeometry>
        </mxCell>
        <mxCell id="nQWJmpluUFZDyjNe52Zx-104" value="" style="endArrow=classic;html=1;strokeWidth=3;entryX=0.5;entryY=1;entryDx=0;entryDy=0;fillColor=#f8cecc;strokeColor=#b85450;" parent="1T-89taB87COxcUD3kPp-1" edge="1">
          <mxGeometry width="50" height="50" relative="1" as="geometry">
            <mxPoint x="740.25" y="800" as="sourcePoint" />
            <mxPoint x="739.75" y="760" as="targetPoint" />
          </mxGeometry>
        </mxCell>
        <mxCell id="nQWJmpluUFZDyjNe52Zx-105" value="" style="endArrow=classic;html=1;strokeWidth=3;entryX=0.5;entryY=1;entryDx=0;entryDy=0;fillColor=#f8cecc;strokeColor=#b85450;" parent="1T-89taB87COxcUD3kPp-1" edge="1">
          <mxGeometry width="50" height="50" relative="1" as="geometry">
            <mxPoint x="700.25" y="800" as="sourcePoint" />
            <mxPoint x="699.75" y="760" as="targetPoint" />
          </mxGeometry>
        </mxCell>
        <mxCell id="nQWJmpluUFZDyjNe52Zx-106" value="" style="endArrow=classic;html=1;strokeWidth=3;entryX=0.5;entryY=1;entryDx=0;entryDy=0;fillColor=#f8cecc;strokeColor=#b85450;" parent="1T-89taB87COxcUD3kPp-1" edge="1">
          <mxGeometry width="50" height="50" relative="1" as="geometry">
            <mxPoint x="660.25" y="800" as="sourcePoint" />
            <mxPoint x="659.75" y="760" as="targetPoint" />
          </mxGeometry>
        </mxCell>
        <mxCell id="nQWJmpluUFZDyjNe52Zx-107" value="" style="endArrow=classic;html=1;strokeWidth=3;fillColor=#f8cecc;strokeColor=#b85450;exitX=0.25;exitY=0;exitDx=0;exitDy=0;" parent="1T-89taB87COxcUD3kPp-1" source="nQWJmpluUFZDyjNe52Zx-0" edge="1">
          <mxGeometry width="50" height="50" relative="1" as="geometry">
            <mxPoint x="680" y="880" as="sourcePoint" />
            <mxPoint x="660" y="800" as="targetPoint" />
          </mxGeometry>
        </mxCell>
        <mxCell id="nQWJmpluUFZDyjNe52Zx-61" value="&lt;div&gt;&lt;span style=&quot;font-size: 13px ; color: #000000 ; font-weight: normal ; text-decoration: none ; font-family: &amp;#34;arial&amp;#34; ; font-style: normal&quot;&gt;&lt;font style=&quot;font-size: 18px&quot;&gt;B16&lt;/font&gt;&lt;br&gt;&lt;/span&gt;&lt;/div&gt;&lt;div&gt;&lt;font size=&quot;1&quot;&gt;&lt;span style=&quot;font-size: 9px ; color: rgb(0 , 0 , 0) ; font-weight: normal ; text-decoration: none ; font-family: &amp;#34;arial&amp;#34; ; font-style: normal&quot;&gt;MB116A&lt;/span&gt;&lt;/font&gt;&lt;/div&gt;" style="rounded=1;whiteSpace=wrap;html=1;" parent="1T-89taB87COxcUD3kPp-1" vertex="1">
          <mxGeometry x="320" y="320" width="40" height="160" as="geometry" />
        </mxCell>
        <mxCell id="nQWJmpluUFZDyjNe52Zx-110" value="" style="endArrow=classic;html=1;strokeWidth=3;fillColor=#f8cecc;strokeColor=#b85450;exitX=0.25;exitY=0;exitDx=0;exitDy=0;entryX=0.5;entryY=1;entryDx=0;entryDy=0;" parent="1T-89taB87COxcUD3kPp-1" source="gXGEx_JHsCBYrGABIQa0-9" target="nQWJmpluUFZDyjNe52Zx-62" edge="1">
          <mxGeometry width="50" height="50" relative="1" as="geometry">
            <mxPoint x="459.58000000000004" y="880" as="sourcePoint" />
            <mxPoint x="459.58000000000004" y="800" as="targetPoint" />
            <Array as="points" />
          </mxGeometry>
        </mxCell>
        <mxCell id="nQWJmpluUFZDyjNe52Zx-112" value="" style="endArrow=classic;html=1;strokeWidth=3;fillColor=#f8cecc;strokeColor=#b85450;exitX=0.25;exitY=0;exitDx=0;exitDy=0;entryX=0.5;entryY=1;entryDx=0;entryDy=0;" parent="1T-89taB87COxcUD3kPp-1" source="nQWJmpluUFZDyjNe52Zx-3" target="nQWJmpluUFZDyjNe52Zx-8" edge="1">
          <mxGeometry width="50" height="50" relative="1" as="geometry">
            <mxPoint x="340" y="827" as="sourcePoint" />
            <mxPoint x="379.58" y="747" as="targetPoint" />
          </mxGeometry>
        </mxCell>
        <mxCell id="nQWJmpluUFZDyjNe52Zx-114" value="" style="curved=1;endArrow=classic;html=1;strokeWidth=3;fillColor=#dae8fc;strokeColor=#6c8ebf;exitX=0.75;exitY=0;exitDx=0;exitDy=0;entryX=0.5;entryY=1;entryDx=0;entryDy=0;" parent="1T-89taB87COxcUD3kPp-1" source="nQWJmpluUFZDyjNe52Zx-3" target="nQWJmpluUFZDyjNe52Zx-97" edge="1">
          <mxGeometry width="50" height="50" relative="1" as="geometry">
            <mxPoint x="380" y="827" as="sourcePoint" />
            <mxPoint x="290" y="340" as="targetPoint" />
            <Array as="points">
              <mxPoint x="360" y="550" />
            </Array>
          </mxGeometry>
        </mxCell>
        <mxCell id="nQWJmpluUFZDyjNe52Zx-115" value="" style="curved=1;endArrow=classic;html=1;strokeWidth=3;exitX=0.5;exitY=0;exitDx=0;exitDy=0;fillColor=#f8cecc;strokeColor=#b85450;entryX=1;entryY=0.75;entryDx=0;entryDy=0;" parent="1T-89taB87COxcUD3kPp-1" source="nQWJmpluUFZDyjNe52Zx-62" target="tsX-wB04UhycCPOWPUZV-22" edge="1">
          <mxGeometry width="50" height="50" relative="1" as="geometry">
            <mxPoint x="390" y="837" as="sourcePoint" />
            <mxPoint x="130" y="399.9999999999999" as="targetPoint" />
            <Array as="points">
              <mxPoint x="360" y="290" />
              <mxPoint x="270" y="290" />
            </Array>
          </mxGeometry>
        </mxCell>
        <mxCell id="nQWJmpluUFZDyjNe52Zx-117" value="" style="curved=1;endArrow=classic;html=1;strokeWidth=3;exitX=0.5;exitY=0;exitDx=0;exitDy=0;fillColor=#f8cecc;strokeColor=#b85450;entryX=1;entryY=0.75;entryDx=0;entryDy=0;" parent="1T-89taB87COxcUD3kPp-1" source="nQWJmpluUFZDyjNe52Zx-63" target="tsX-wB04UhycCPOWPUZV-23" edge="1">
          <mxGeometry width="50" height="50" relative="1" as="geometry">
            <mxPoint x="390" y="610" as="sourcePoint" />
            <mxPoint x="130" y="360" as="targetPoint" />
            <Array as="points">
              <mxPoint x="360" y="280" />
            </Array>
          </mxGeometry>
        </mxCell>
        <mxCell id="nQWJmpluUFZDyjNe52Zx-118" value="" style="curved=1;endArrow=classic;html=1;strokeWidth=3;exitX=0.5;exitY=0;exitDx=0;exitDy=0;fillColor=#dae8fc;strokeColor=#6c8ebf;entryX=0.25;entryY=1;entryDx=0;entryDy=0;" parent="1T-89taB87COxcUD3kPp-1" source="nQWJmpluUFZDyjNe52Zx-97" target="tsX-wB04UhycCPOWPUZV-16" edge="1">
          <mxGeometry width="50" height="50" relative="1" as="geometry">
            <mxPoint x="620" y="70" as="sourcePoint" />
            <mxPoint x="660" y="70" as="targetPoint" />
            <Array as="points">
              <mxPoint x="630" y="80" />
            </Array>
          </mxGeometry>
        </mxCell>
        <mxCell id="nQWJmpluUFZDyjNe52Zx-119" value="" style="endArrow=none;html=1;strokeWidth=10;fillColor=#f8cecc;strokeColor=#b85450;" parent="1T-89taB87COxcUD3kPp-1" edge="1">
          <mxGeometry width="50" height="50" relative="1" as="geometry">
            <mxPoint x="410" y="800" as="sourcePoint" />
            <mxPoint x="630" y="800" as="targetPoint" />
          </mxGeometry>
        </mxCell>
        <mxCell id="caf3lAcnGgKeYXmyDuDW-1" value="&lt;span style=&quot;background-color: rgb(184 , 84 , 80)&quot;&gt;KDN180&lt;/span&gt;" style="edgeLabel;html=1;align=center;verticalAlign=middle;resizable=0;points=[];" vertex="1" connectable="0" parent="nQWJmpluUFZDyjNe52Zx-119">
          <mxGeometry x="-0.3636" relative="1" as="geometry">
            <mxPoint as="offset" />
          </mxGeometry>
        </mxCell>
        <mxCell id="nQWJmpluUFZDyjNe52Zx-120" value="" style="endArrow=none;html=1;strokeWidth=10;fillColor=#f8cecc;strokeColor=#b85450;" parent="1T-89taB87COxcUD3kPp-1" edge="1">
          <mxGeometry width="50" height="50" relative="1" as="geometry">
            <mxPoint x="330" y="800" as="sourcePoint" />
            <mxPoint x="390" y="800" as="targetPoint" />
          </mxGeometry>
        </mxCell>
        <mxCell id="nQWJmpluUFZDyjNe52Zx-121" value="" style="endArrow=classic;html=1;strokeWidth=3;fillColor=#f8cecc;strokeColor=#b85450;entryX=0.5;entryY=1;entryDx=0;entryDy=0;" parent="1T-89taB87COxcUD3kPp-1" target="nQWJmpluUFZDyjNe52Zx-61" edge="1">
          <mxGeometry width="50" height="50" relative="1" as="geometry">
            <mxPoint x="700" y="800" as="sourcePoint" />
            <mxPoint x="390" y="490" as="targetPoint" />
            <Array as="points">
              <mxPoint x="490" y="680" />
            </Array>
          </mxGeometry>
        </mxCell>
        <mxCell id="nQWJmpluUFZDyjNe52Zx-122" value="" style="endArrow=classic;html=1;strokeWidth=3;fillColor=#f8cecc;strokeColor=#b85450;exitX=0.25;exitY=0;exitDx=0;exitDy=0;" parent="1T-89taB87COxcUD3kPp-1" edge="1">
          <mxGeometry width="50" height="50" relative="1" as="geometry">
            <mxPoint x="579.5" y="880" as="sourcePoint" />
            <mxPoint x="579.5" y="800" as="targetPoint" />
          </mxGeometry>
        </mxCell>
        <mxCell id="nQWJmpluUFZDyjNe52Zx-123" value="" style="endArrow=classic;html=1;strokeWidth=3;fillColor=#f8cecc;strokeColor=#b85450;exitX=0.25;exitY=0;exitDx=0;exitDy=0;" parent="1T-89taB87COxcUD3kPp-1" edge="1">
          <mxGeometry width="50" height="50" relative="1" as="geometry">
            <mxPoint x="499.5" y="880" as="sourcePoint" />
            <mxPoint x="360" y="800" as="targetPoint" />
            <Array as="points">
              <mxPoint x="500" y="850" />
              <mxPoint x="360" y="840" />
            </Array>
          </mxGeometry>
        </mxCell>
        <mxCell id="nQWJmpluUFZDyjNe52Zx-124" value="" style="endArrow=classic;html=1;strokeWidth=3;entryX=0.5;entryY=1;entryDx=0;entryDy=0;fillColor=#f8cecc;strokeColor=#b85450;" parent="1T-89taB87COxcUD3kPp-1" edge="1">
          <mxGeometry width="50" height="50" relative="1" as="geometry">
            <mxPoint x="340" y="800" as="sourcePoint" />
            <mxPoint x="339.5" y="760" as="targetPoint" />
          </mxGeometry>
        </mxCell>
        <mxCell id="nQWJmpluUFZDyjNe52Zx-125" value="" style="endArrow=classic;html=1;strokeWidth=3;entryX=0.5;entryY=1;entryDx=0;entryDy=0;fillColor=#f8cecc;strokeColor=#b85450;" parent="1T-89taB87COxcUD3kPp-1" edge="1">
          <mxGeometry width="50" height="50" relative="1" as="geometry">
            <mxPoint x="380" y="800" as="sourcePoint" />
            <mxPoint x="379.5" y="760" as="targetPoint" />
          </mxGeometry>
        </mxCell>
        <mxCell id="nQWJmpluUFZDyjNe52Zx-126" value="" style="curved=1;endArrow=classic;html=1;strokeWidth=3;fillColor=#dae8fc;strokeColor=#6c8ebf;exitX=0.75;exitY=0;exitDx=0;exitDy=0;entryX=0.75;entryY=1;entryDx=0;entryDy=0;" parent="1T-89taB87COxcUD3kPp-1" source="nQWJmpluUFZDyjNe52Zx-2" target="nQWJmpluUFZDyjNe52Zx-98" edge="1">
          <mxGeometry width="50" height="50" relative="1" as="geometry">
            <mxPoint x="470" y="890" as="sourcePoint" />
            <mxPoint x="570" y="210" as="targetPoint" />
            <Array as="points">
              <mxPoint x="500" y="560" />
            </Array>
          </mxGeometry>
        </mxCell>
        <mxCell id="nQWJmpluUFZDyjNe52Zx-127" value="" style="endArrow=classic;html=1;strokeWidth=3;entryX=0.5;entryY=1;entryDx=0;entryDy=0;fillColor=#f8cecc;strokeColor=#b85450;" parent="1T-89taB87COxcUD3kPp-1" edge="1">
          <mxGeometry width="50" height="50" relative="1" as="geometry">
            <mxPoint x="420" y="800" as="sourcePoint" />
            <mxPoint x="419.5" y="760" as="targetPoint" />
          </mxGeometry>
        </mxCell>
        <mxCell id="nQWJmpluUFZDyjNe52Zx-128" value="" style="endArrow=classic;html=1;strokeWidth=3;entryX=0.5;entryY=1;entryDx=0;entryDy=0;fillColor=#f8cecc;strokeColor=#b85450;" parent="1T-89taB87COxcUD3kPp-1" edge="1">
          <mxGeometry width="50" height="50" relative="1" as="geometry">
            <mxPoint x="460" y="800" as="sourcePoint" />
            <mxPoint x="459.5" y="760" as="targetPoint" />
          </mxGeometry>
        </mxCell>
        <mxCell id="nQWJmpluUFZDyjNe52Zx-129" value="" style="endArrow=classic;html=1;strokeWidth=3;entryX=0.5;entryY=1;entryDx=0;entryDy=0;fillColor=#f8cecc;strokeColor=#b85450;" parent="1T-89taB87COxcUD3kPp-1" edge="1">
          <mxGeometry width="50" height="50" relative="1" as="geometry">
            <mxPoint x="500" y="800" as="sourcePoint" />
            <mxPoint x="499.5" y="760" as="targetPoint" />
          </mxGeometry>
        </mxCell>
        <mxCell id="nQWJmpluUFZDyjNe52Zx-130" value="" style="endArrow=classic;html=1;strokeWidth=3;entryX=0.5;entryY=1;entryDx=0;entryDy=0;fillColor=#f8cecc;strokeColor=#b85450;" parent="1T-89taB87COxcUD3kPp-1" edge="1">
          <mxGeometry width="50" height="50" relative="1" as="geometry">
            <mxPoint x="540" y="800" as="sourcePoint" />
            <mxPoint x="539.5" y="760" as="targetPoint" />
          </mxGeometry>
        </mxCell>
        <mxCell id="nQWJmpluUFZDyjNe52Zx-131" value="" style="endArrow=classic;html=1;strokeWidth=3;entryX=0.5;entryY=1;entryDx=0;entryDy=0;fillColor=#f8cecc;strokeColor=#b85450;" parent="1T-89taB87COxcUD3kPp-1" edge="1">
          <mxGeometry width="50" height="50" relative="1" as="geometry">
            <mxPoint x="580" y="800" as="sourcePoint" />
            <mxPoint x="579.5" y="760" as="targetPoint" />
          </mxGeometry>
        </mxCell>
        <mxCell id="nQWJmpluUFZDyjNe52Zx-132" value="" style="endArrow=classic;html=1;strokeWidth=3;entryX=0.5;entryY=1;entryDx=0;entryDy=0;fillColor=#f8cecc;strokeColor=#b85450;" parent="1T-89taB87COxcUD3kPp-1" edge="1">
          <mxGeometry width="50" height="50" relative="1" as="geometry">
            <mxPoint x="620" y="800" as="sourcePoint" />
            <mxPoint x="619.5" y="760" as="targetPoint" />
          </mxGeometry>
        </mxCell>
        <mxCell id="nQWJmpluUFZDyjNe52Zx-133" value="" style="curved=1;endArrow=classic;html=1;strokeWidth=3;fillColor=#dae8fc;strokeColor=#6c8ebf;exitX=0.75;exitY=0;exitDx=0;exitDy=0;entryX=0.692;entryY=1;entryDx=0;entryDy=0;entryPerimeter=0;" parent="1T-89taB87COxcUD3kPp-1" source="nQWJmpluUFZDyjNe52Zx-1" target="nQWJmpluUFZDyjNe52Zx-100" edge="1">
          <mxGeometry width="50" height="50" relative="1" as="geometry">
            <mxPoint x="550" y="890" as="sourcePoint" />
            <mxPoint x="510" y="210" as="targetPoint" />
            <Array as="points">
              <mxPoint x="510" y="570" />
            </Array>
          </mxGeometry>
        </mxCell>
        <mxCell id="nQWJmpluUFZDyjNe52Zx-134" value="&lt;span style=&quot;font-size: 13px ; color: #000000 ; font-weight: normal ; text-decoration: none ; font-family: &amp;#34;arial&amp;#34; ; font-style: normal&quot;&gt;KF82A&lt;/span&gt;" style="rounded=0;whiteSpace=wrap;html=1;fillColor=#f8cecc;strokeColor=#b85450;" parent="1T-89taB87COxcUD3kPp-1" vertex="1">
          <mxGeometry x="600" y="570" width="40" height="20" as="geometry" />
        </mxCell>
        <mxCell id="nQWJmpluUFZDyjNe52Zx-135" value="" style="endArrow=classic;html=1;strokeWidth=3;entryX=0.5;entryY=1;entryDx=0;entryDy=0;fillColor=#f8cecc;strokeColor=#b85450;exitX=0.5;exitY=0;exitDx=0;exitDy=0;" parent="1T-89taB87COxcUD3kPp-1" source="nQWJmpluUFZDyjNe52Zx-56" edge="1">
          <mxGeometry width="50" height="50" relative="1" as="geometry">
            <mxPoint x="620.25" y="620" as="sourcePoint" />
            <mxPoint x="619.7500000000002" y="580" as="targetPoint" />
          </mxGeometry>
        </mxCell>
        <mxCell id="nQWJmpluUFZDyjNe52Zx-136" value="&lt;span style=&quot;font-size: 13px ; color: #000000 ; font-weight: normal ; text-decoration: none ; font-family: &amp;#34;arial&amp;#34; ; font-style: normal&quot;&gt;KF82A&lt;/span&gt;" style="rounded=0;whiteSpace=wrap;html=1;fillColor=#f8cecc;strokeColor=#b85450;" parent="1T-89taB87COxcUD3kPp-1" vertex="1">
          <mxGeometry x="480" y="570" width="40" height="20" as="geometry" />
        </mxCell>
        <mxCell id="nQWJmpluUFZDyjNe52Zx-137" value="" style="endArrow=classic;html=1;strokeWidth=3;entryX=0.5;entryY=1;entryDx=0;entryDy=0;fillColor=#f8cecc;strokeColor=#b85450;exitX=0.5;exitY=0;exitDx=0;exitDy=0;" parent="1T-89taB87COxcUD3kPp-1" edge="1">
          <mxGeometry width="50" height="50" relative="1" as="geometry">
            <mxPoint x="500.01" y="600" as="sourcePoint" />
            <mxPoint x="499.7600000000002" y="580" as="targetPoint" />
          </mxGeometry>
        </mxCell>
      </root>
    </mxGraphModel>
  </diagram>
</mxfile>
